<svg id="Laag_1" data-name="Laag 1" xmlns="http://www.w3.org/2000/svg" viewBox="0 0 196.7 46.14"><defs><style>.cls-1{fill:#1d1d1b;}</style></defs><path class="cls-1" d="M16.2,1.37A11.2,11.2,0,0,0,10.51,0,11.07,11.07,0,0,0,4.84,1.37a8.89,8.89,0,0,0-3.6,4A14.4,14.4,0,0,0,0,11.6v23a14.32,14.32,0,0,0,1.24,6.24,8.91,8.91,0,0,0,3.61,4,11.14,11.14,0,0,0,5.66,1.37,11.2,11.2,0,0,0,5.69-1.37,8.81,8.81,0,0,0,3.59-4A14.47,14.47,0,0,0,21,34.57v-1.8H15.64v1.8A9.08,9.08,0,0,1,15.05,38a4.58,4.58,0,0,1-1.76,2.18,5,5,0,0,1-2.78.75,5,5,0,0,1-2.77-.75A4.68,4.68,0,0,1,6,38a8.69,8.69,0,0,1-.61-3.45v-23A8.86,8.86,0,0,1,6,8.11,4.7,4.7,0,0,1,7.74,5.94a5,5,0,0,1,2.77-.75,5,5,0,0,1,2.8.75,4.69,4.69,0,0,1,1.74,2.17,9.17,9.17,0,0,1,.59,3.46v1.8H21v-1.8a14.47,14.47,0,0,0-1.23-6.24A8.81,8.81,0,0,0,16.2,1.37Z"/><rect class="cls-1" x="25.31" y="14.03" width="4.79" height="31.64"/><path class="cls-1" d="M45.91,31.42a6.24,6.24,0,0,0,2.78-2.54,8,8,0,0,0,1-4v-3.7a7.6,7.6,0,0,0-1-3.89,6.1,6.1,0,0,0-2.77-2.46A10.39,10.39,0,0,0,41.57,14H34V45.67h4.72V32.29h2.67l4,13.38h5.18l-4.7-14.22S45.89,31.43,45.91,31.42ZM38.67,18.56h3.25a3.19,3.19,0,0,1,1.55.35,2.36,2.36,0,0,1,1,1,3.61,3.61,0,0,1,.33,1.61v3.37a3.27,3.27,0,0,1-.36,1.54,2.2,2.2,0,0,1-1,.94,3.36,3.36,0,0,1-1.54.33H38.67Z"/><path class="cls-1" d="M62.94,38.45a3,3,0,0,1-.68,2.1,2.58,2.58,0,0,1-1.95.73,2.51,2.51,0,0,1-1.92-.73,3,3,0,0,1-.67-2.1V14H52.93V38.29a9.31,9.31,0,0,0,.86,4.17,5.91,5.91,0,0,0,2.52,2.64,9.34,9.34,0,0,0,8,0,6.11,6.11,0,0,0,2.54-2.64,9,9,0,0,0,.88-4.17V14H62.94Z"/><path class="cls-1" d="M82.2,14.65a8.09,8.09,0,0,0-4-1,8,8,0,0,0-4,1,6.3,6.3,0,0,0-2.57,2.76,9.91,9.91,0,0,0-.89,4.38V37.92a9.85,9.85,0,0,0,.89,4.36A6.3,6.3,0,0,0,74.13,45a8,8,0,0,0,4,1,8.13,8.13,0,0,0,4-1,6,6,0,0,0,2.56-2.77,10.27,10.27,0,0,0,.89-4.38V36H80.81V37.9a4.83,4.83,0,0,1-.3,1.81,2.58,2.58,0,0,1-.9,1.14,2.51,2.51,0,0,1-1.46.4,2.48,2.48,0,0,1-1.41-.39,2.52,2.52,0,0,1-.91-1.13,4.4,4.4,0,0,1-.33-1.81V21.8A4.52,4.52,0,0,1,75.83,20a2.37,2.37,0,0,1,2.32-1.53,2.6,2.6,0,0,1,1.45.39A2.41,2.41,0,0,1,80.51,20a4.94,4.94,0,0,1,.3,1.81v1.94h4.83V21.8a10,10,0,0,0-.88-4.38A6.15,6.15,0,0,0,82.2,14.65Z"/><path class="cls-1" d="M98.16,38.45a3,3,0,0,1-.69,2.1,2.58,2.58,0,0,1-2,.73,2.5,2.5,0,0,1-1.91-.73,3,3,0,0,1-.68-2.1V14H88.14V38.29A9.31,9.31,0,0,0,89,42.46a6,6,0,0,0,2.53,2.64,9.34,9.34,0,0,0,8,0,6.09,6.09,0,0,0,2.53-2.64,9,9,0,0,0,.88-4.17V14H98.16Z"/><polygon class="cls-1" points="116.63 32.57 110.82 14.03 106.32 14.03 106.32 45.67 110.76 45.67 110.76 25.99 115.28 40.3 117.98 40.3 122.64 25.17 122.64 45.67 126.95 45.67 126.95 14.03 122.6 14.03 116.63 32.57"/><polygon class="cls-1" points="133.35 14.03 131.04 14.03 131.04 45.67 135.83 45.67 135.83 32.51 143.82 32.51 143.82 27.98 135.83 27.98 135.83 18.58 144.9 18.58 144.9 14.03 135.83 14.03 133.35 14.03"/><polygon class="cls-1" points="152.7 14.03 147.91 14.03 147.91 45.67 150.15 45.67 152.7 45.67 161.31 45.67 161.31 41.12 152.7 41.12 152.7 14.03"/><polygon class="cls-1" points="166.6 14.03 164.32 14.03 164.32 45.67 166.6 45.67 169.11 45.67 178.16 45.67 178.16 41.08 169.11 41.08 169.11 32.24 177.07 32.24 177.07 27.67 169.11 27.67 169.11 18.62 178.16 18.62 178.16 14.03 169.11 14.03 166.6 14.03"/><polygon class="cls-1" points="196.7 45.67 189.89 29.43 196.22 14.03 191.06 14.03 187.75 24.08 184.41 14.03 179.25 14.03 185.66 29.77 178.99 45.67 184.14 45.67 187.8 35.11 191.54 45.67 196.7 45.67"/></svg>