<svg id="Laag_1" data-name="Laag 1" xmlns="http://www.w3.org/2000/svg" viewBox="0 0 127.33 86.99"><defs><style>.cls-1{fill:#1d1d1b;}</style></defs><path class="cls-1" d="M18.05,23.27c-.79,4.47-2.34,6.05-5.94,6.05-4.5,0-6.33-3.27-6.33-11.29S7.61,6.79,12.11,6.79c3.83,0,5.48,1.75,5.89,6.23l.07.84h5.8l-.1-1C23,5.23,19.07,1.36,12.11,1.36,6.58,1.36,0,4.25,0,18S6.58,34.7,12.11,34.7c6.85,0,10.67-3.64,11.66-11.15l.13-1H18.19Z"/><path class="cls-1" d="M38.8,9.66c-6.82,0-11,4.8-11,12.54S32,34.7,38.8,34.7s11.05-4.79,11.05-12.5S45.62,9.66,38.8,9.66ZM44.3,22.2c0,4.9-1.85,7.38-5.5,7.38-4.54,0-5.49-4-5.49-7.38s.95-7.42,5.49-7.42S44.3,18.82,44.3,22.2Z"/><path class="cls-1" d="M70.58,11.78a8.94,8.94,0,0,0-6-2.12c-6.38,0-10.39,4.78-10.44,12.49,0,4.17,1.13,7.55,3.35,9.78a9.75,9.75,0,0,0,7.09,2.77,8.86,8.86,0,0,0,6.33-2.4l.31,2h4.9V0H70.58Zm-5.4,17.8c-4.78,0-5.5-4.65-5.5-7.42s.72-7.38,5.5-7.38c5.09,0,5.49,5.65,5.49,7.38S70.27,29.58,65.18,29.58Z"/><path class="cls-1" d="M92.07,9.66C85.25,9.66,81,14.46,81,22.2s4.36,12.5,11.1,12.5c5.36,0,9.58-3.15,10.25-7.67l.16-1.05H97.06l-.18.69c-.65,2.53-3.27,2.91-4.77,2.91-3.16,0-5.09-1.94-5.37-5.37h15.94V21.5C102.68,14.31,98.51,9.66,92.07,9.66Zm0,5.12c3.77,0,4.71,2.7,4.91,4.53H86.83A4.83,4.83,0,0,1,92.07,14.78Z"/><polygon class="cls-1" points="0.92 76.54 6.57 76.54 6.57 63.15 20.09 63.15 20.09 57.81 6.57 57.81 6.57 49.33 21.58 49.33 21.58 43.99 0.92 43.99 0.92 76.54"/><path class="cls-1" d="M35.46,51.89c-6.82,0-11.06,4.81-11.06,12.54s4.24,12.51,11.06,12.51,11-4.79,11-12.51S42.28,51.89,35.46,51.89ZM41,64.43c0,4.9-1.85,7.38-5.49,7.38-4.54,0-5.5-4-5.5-7.38s1-7.42,5.5-7.42S41,61.05,41,64.43Z"/><path class="cls-1" d="M62,54.34l-.17-2.06H51.11v4.91h5.75V71.64H50.37v4.9h22v-4.9h-10v-6.9c0-7.33,4-7.33,5.27-7.33h4.87V52H67.39A7.14,7.14,0,0,0,62,54.34Z"/><path class="cls-1" d="M94.86,54.29a8.88,8.88,0,0,0-6.32-2.4c-6.39,0-10.39,4.8-10.44,12.55s4.05,12.5,10.44,12.5a9,9,0,0,0,6-2.12v2c0,3.26-1.94,5.14-5.32,5.14-3.54,0-5-1.86-5.1-3.59l-.07-.84H78.73l0,.94c.15,5,4.46,8.48,10.48,8.48,6.48,0,10.84-4,10.84-10V52.28H95.17ZM89.15,71.81c-4.78,0-5.49-4.62-5.49-7.38S84.37,57,89.15,57c5.1,0,5.5,5.68,5.5,7.42S94.25,71.81,89.15,71.81Z"/><path class="cls-1" d="M127.33,63.73c0-7.19-4.17-11.84-10.62-11.84-6.82,0-11,4.81-11,12.54s4.36,12.51,11.1,12.51c5.36,0,9.58-3.16,10.25-7.68l.16-1h-5.46l-.18.68c-.66,2.54-3.27,2.91-4.77,2.91-3.17,0-5.09-1.94-5.37-5.36h15.94ZM116.71,57c3.78,0,4.72,2.7,4.92,4.53H111.48A4.83,4.83,0,0,1,116.71,57Z"/><rect class="cls-1" x="114.55" y="21.52" width="5.82" height="19.74" transform="translate(148.85 -86.07) rotate(90)"/></svg>