<svg id="Laag_1" data-name="Laag 1" xmlns="http://www.w3.org/2000/svg" viewBox="0 0 167.05 54.62"><path d="M134.15,42.67c0-4.18.06-8.35,0-12.52,0-1.51.34-2.18,1.95-2a30.57,30.57,0,0,0,3.47,0v26a36.18,36.18,0,0,1-4.17,0A2.47,2.47,0,0,1,134,53c-2.69-4-5.32-8-8-12.07a4.53,4.53,0,0,0-1.41-1.47V54.22c-1.66,0-3.12.08-4.55,0-.34,0-.87-.74-.88-1.13q-.08-11.83,0-23.65a1.64,1.64,0,0,1,1-1.16c2.31-.35,4.15,0,5.51,2.46,2.08,3.74,4.66,7.2,7,10.78.31.46.66.9,1,1.35Z"/><path d="M128.41,25.9a5.86,5.86,0,0,1-.57.26c-5,.57-5,.57-5-4.43V.22a36.54,36.54,0,0,1,4.23.05,2.51,2.51,0,0,1,1.4,1.14c2.57,3.87,5.09,7.77,7.63,11.66a6.21,6.21,0,0,0,1.67,1.81V.33h5.44V26.25a34.56,34.56,0,0,1-4.09-.06,2.49,2.49,0,0,1-1.42-1.09c-3-4.49-6-9-9.27-14Z"/><path d="M80.23,16.18c0,2.77-.06,5.57,0,8.38,0,1.3-.35,1.73-1.69,1.73-3.83,0-3.83,0-3.83-3.81V0C79.43.23,84,.18,88.39.77c2.88.38,4.69,2.67,5.25,5.55A7.65,7.65,0,0,1,91.15,14c-.48.42-1,.77-1.65,1.24l5.84,11c-2.16,0-4,.07-5.86-.05-.42,0-.92-.65-1.16-1.11-1.21-2.29-2.33-4.62-3.5-6.93C83.57,15.64,83.43,15.58,80.23,16.18Zm.07-5.34c2,0,3.92.1,5.76,0a2.62,2.62,0,0,0,2.42-2.6,2.15,2.15,0,0,0-1.73-2.66c-2.1-.3-4.24-.27-6.45-.38Z"/><path d="M53.89,33.58v5c2.6,0,5.12,0,7.64,0,3.16,0,2.74-.34,2.78,2.87,0,.59,0,1.17,0,2H53.93v5.69H66.08v4.93a10,10,0,0,1-1.34.16H49.9c-.89,0-1.6,0-1.59-1.25,0-8,0-16,0-24a3,3,0,0,1,.18-.65H66v5.26Z"/><path d="M115.73,15.6c-3,0-5.84.09-8.65,0-1.57-.07-2,.44-2,2,.09,3.64,0,3.64,3.64,3.64h8.6v5.06h-3.83c-4.06,0-8.12,0-12.18,0-.87,0-1.63,0-1.62-1.23,0-8.06,0-16.13,0-24.19a2.11,2.11,0,0,1,.16-.48h17.44V5.58h-9.9c-2.32,0-2.34,0-2.32,2.26,0,3.05-.37,2.68,2.75,2.7,2.18,0,4.36,0,6.54,0,.85,0,1.34.2,1.3,1.17C115.69,12.93,115.73,14.15,115.73,15.6Z"/><path d="M95.76,54.09c0-8.42,0-16.55,0-24.67,0-.9.34-1.25,1.25-1.25,5.41,0,10.82,0,16.39,0v5.37H101.27v5c2.82,0,5.58.1,8.33,0,1.73-.08,2.36.5,2.11,2.18a5.62,5.62,0,0,0,0,1.42c.12,1.1-.39,1.42-1.44,1.41-2.93-.05-5.87,0-9,0v5.6h12.16v5Z"/><path d="M20.07,31.2l-2.81,4c-1.94-.61-3.75-1.22-5.58-1.72a5.44,5.44,0,0,0-1.93,0,2.36,2.36,0,0,0-2.47,2.28,2.3,2.3,0,0,0,2.1,2.44c1.21.25,2.44.4,3.66.53,4.26.47,7.18,3.24,7.48,7.13.33,4.28-1.81,7.36-6.2,8.34A15.56,15.56,0,0,1,0,50.56l3.54-4.08c2.35,1.69,4.79,2.91,7.7,2.68.64-.06,1.45,0,1.87-.35a4.66,4.66,0,0,0,1.76-2.32c.21-1.2-.72-2-2-2.25-1.74-.29-3.51-.44-5.21-.86a7.22,7.22,0,0,1-5.94-7.32,7.6,7.6,0,0,1,5.88-7.79A14.79,14.79,0,0,1,20.07,31.2Z"/><path d="M165.08,31,162,35.42a10.6,10.6,0,0,0-2.25-1.14,27.47,27.47,0,0,0-5-.81,2.26,2.26,0,0,0-2.55,2.16c-.14,1.52.86,2.27,2.17,2.55s2.67.41,4,.57a8,8,0,0,1,6.69,10.48,7,7,0,0,1-3.48,4c-4.73,2.63-12.8,1.29-16.61-2.86l3.51-3.93a11.13,11.13,0,0,0,7.75,2.67,4,4,0,0,0,2.18-.53,3.53,3.53,0,0,0,1.31-2.35,2.72,2.72,0,0,0-1.67-1.87,26.81,26.81,0,0,0-4.33-.73c-5.88-1-8.62-5.83-6.35-11.25a6.67,6.67,0,0,1,4-3.75C156.34,26.9,160.74,28.24,165.08,31Z"/><path d="M48.6.31h5.48v2c0,4.83,0,9.66,0,14.49,0,2.83,1.53,4.39,4.15,4.41s4.35-1.54,4.38-4.4c0-4.83,0-9.65,0-14.48v-2h5.58V2.68c0,4.83.07,9.66,0,14.49a9.24,9.24,0,0,1-8.71,9.4c-5.4.49-9.73-2.44-10.78-7.28a3.39,3.39,0,0,1-.1-.52Z"/><path d="M20.5,26.26c1.77-4.6,3.4-8.76,5-12.93,1.53-4,3.06-8,4.49-12,.41-1.17,1.21-1.2,2.08-1,1,.18,2.4-.76,3,.92q4.56,12.12,9.17,24.23a4.6,4.6,0,0,1,.09.85c-1.7,0-3.38.07-5-.06-.38,0-.82-.73-1-1.21-1.62-4-1.6-4-6-4-3.86,0-3.92,0-5.22,3.67-.44,1.25-1,1.83-2.38,1.69S22.13,26.26,20.5,26.26ZM32.77,9.66l-.39,0-2.05,6h4.59Z"/><path d="M80.09,44.58c1.66-5.31,3.21-10.12,4.65-15,.33-1.09.81-1.54,2-1.47,1.34.09,2.69,0,4.33,0-.44,1.32-.79,2.42-1.16,3.5-2.37,7-4.83,13.89-7.07,20.89-.6,1.85-1.75,1.6-3.09,1.7a2,2,0,0,1-2.39-1.65c-2.55-7.64-5.2-15.25-7.81-22.87-.15-.42-.21-.88-.37-1.56,1.79,0,3.43-.07,5,0,.38,0,.86.69,1,1.16C76.6,33.7,77.94,38,79.3,42.34,79.49,42.94,79.72,43.53,80.09,44.58Z"/><path d="M43.26,28.4a31.38,31.38,0,0,1-.06,3.89c0,.38-.78.93-1.23,1-1.74.11-3.5,0-5.47,0V54.12H30.87v-2c0-5.64-.06-11.29,0-16.93,0-1.61-.5-2.08-2-1.94-1.22.11-2.47,0-3.7,0-.9,0-1.21-.33-1.27-1.23-.26-3.91-.29-3.91,3.52-3.9l15,0A5.3,5.3,0,0,1,43.26,28.4Z"/><path d="M.75.28H6V21.17H18.35v5c-.79,0-1.53.1-2.28.1-4.65,0-9.3,0-13.95,0-.94,0-1.57-.1-1.56-1.3,0-7.95,0-15.9,0-23.85A6.06,6.06,0,0,1,.75.28Z"/><path d="M160.26,26a3.55,3.55,0,0,1-.71.23c-4.81.43-4.81.42-4.81-4.35V5.24c-1.94,0-3.68-.06-5.41,0-1.14,0-1.62-.33-1.54-1.5s0-2.2,0-3.42h19.24V5.24c-1.55,0-3.06.1-4.55,0-1.72-.15-2.34.31-2.29,2.19.14,5.58,0,11.17,0,16.76Z"/></svg>