<?xml version="1.0" encoding="UTF-8" standalone="no"?>
<svg width="230px" height="133px" viewBox="0 0 230 133" version="1.1" xmlns="http://www.w3.org/2000/svg" xmlns:xlink="http://www.w3.org/1999/xlink">
    <!-- Generator: Sketch 3.7 (28169) - http://www.bohemiancoding.com/sketch -->
    <title>lvsi-logo</title>
    <desc>Created with Sketch.</desc>
    <defs></defs>
    <g id="Page-1" stroke="none" stroke-width="1" fill="none" fill-rule="evenodd">
        <g id="lvsi-logo" fill="#FFFFFF">
            <g transform="translate(1.000000, 1.000000)" id="Group">
                <g>
                    <g id="Shape">
                        <polygon points="0.9 83.9 0.9 2.2 19.1 2.2 19.1 67.7 54 67.7 54 83.9"></polygon>
                        <polygon points="86 54.2 106.8 2.2 126.6 2.2 93.7 83.9 78.3 83.9 45.4 2.2 65.2 2.2"></polygon>
                        <path d="M152,18.5 C150.2,19.9 149.4,21.9 149.4,24.2 C149.4,26.6 150.5,28.5 152.6,29.9 C154.7,31.3 159.7,33 167.4,34.9 C175.2,36.8 181.2,39.7 185.5,43.5 C189.8,47.3 191.9,52.9 191.9,60.2 C191.9,67.5 189.2,73.5 183.7,78 C178.2,82.6 171,84.8 162,84.8 C149.1,84.8 137.4,80 127,70.4 L137.9,57.1 C146.7,64.8 154.9,68.7 162.3,68.7 C165.6,68.7 168.3,68 170.2,66.5 C172.1,65.1 173.1,63.1 173.1,60.7 C173.1,58.2 172.1,56.3 170.1,54.9 C168.1,53.5 164.1,52 158.1,50.5 C148.6,48.2 141.6,45.3 137.2,41.7 C132.8,38.1 130.6,32.4 130.6,24.6 C130.6,16.8 133.4,10.9 139,6.7 C144.6,2.5 151.5,0.4 159.9,0.4 C165.4,0.4 170.8,1.3 176.3,3.2 C181.8,5.1 186.5,7.7 190.6,11.1 L181.4,24.4 C174.3,19 167,16.3 159.4,16.3 C156.1,16.4 153.7,17.1 152,18.5 L152,18.5 Z"></path>
                        <path d="M204.3,17.1 C202.4,15.2 201.5,12.9 201.5,10.2 C201.5,7.5 202.4,5.2 204.3,3.3 C206.2,1.4 208.5,0.5 211.2,0.5 C213.9,0.5 216.2,1.4 218.1,3.3 C220,5.2 220.9,7.5 220.9,10.2 C220.9,12.9 220,15.2 218.1,17.1 C216.2,19 213.9,19.9 211.2,19.9 C208.5,19.9 206.1,18.9 204.3,17.1 L204.3,17.1 Z M219.4,83.9 L202.9,83.9 L202.9,26.8 L219.4,26.8 L219.4,83.9 L219.4,83.9 Z"></path>
                    </g>
                    <g transform="translate(0.000000, 97.000000)" id="Shape">
                        <polygon points="1 11.9 1 1.1 3.4 1.1 3.4 9.7 8 9.7 8 11.8 1 11.8"></polygon>
                        <path d="M16.6,11.9 L14.4,11.9 L14.4,10.9 C13.8,11.7 13.1,12 12.2,12 C11.3,12 10.6,11.7 10,11.2 C9.4,10.7 9.1,10 9.1,9.2 C9.1,8.4 9.4,7.7 10,7.3 C10.6,6.9 11.5,6.7 12.5,6.7 L14.2,6.7 L14.2,6.7 C14.2,5.8 13.7,5.4 12.8,5.4 C12.4,5.4 12,5.5 11.5,5.6 C11.1,5.8 10.7,6 10.4,6.2 L9.4,4.7 C10.5,3.9 11.7,3.5 13.1,3.5 C14.1,3.5 14.9,3.8 15.6,4.3 C16.2,4.8 16.6,5.6 16.6,6.7 L16.6,11.9 L16.6,11.9 Z M14.2,8.7 L14.2,8.3 L12.7,8.3 C11.8,8.3 11.3,8.6 11.3,9.2 C11.3,9.5 11.4,9.7 11.6,9.9 C11.8,10.1 12.1,10.1 12.5,10.1 C12.9,10.1 13.3,10 13.6,9.7 C14.1,9.5 14.2,9.1 14.2,8.7 L14.2,8.7 Z"></path>
                        <path d="M21,7.2 L21,11.8 L18.7,11.8 L18.7,3.5 L21,3.5 L21,4.4 C21.7,3.7 22.5,3.3 23.4,3.3 C24.3,3.3 25,3.6 25.6,4.2 C26.2,4.8 26.5,5.6 26.5,6.7 L26.5,11.7 L24.2,11.7 L24.2,7 C24.2,5.7 23.7,5.1 22.8,5.1 C22.3,5.1 21.9,5.3 21.6,5.6 C21.2,6.1 21,6.6 21,7.2 L21,7.2 Z"></path>
                        <path d="M31.9,12 C30.9,12 30,11.6 29.3,10.7 C28.5,9.9 28.1,8.8 28.1,7.6 C28.1,6.4 28.5,5.4 29.2,4.6 C30,3.8 30.8,3.4 31.8,3.4 C32.8,3.4 33.6,3.8 34.3,4.5 L34.3,0.4 L36.6,0.4 L36.6,11.9 L34.3,11.9 L34.3,10.8 C33.7,11.6 32.9,12 31.9,12 L31.9,12 Z M30.4,7.7 C30.4,8.4 30.6,8.9 31,9.3 C31.4,9.7 31.9,9.9 32.4,9.9 C32.9,9.9 33.4,9.7 33.8,9.3 C34.2,8.9 34.4,8.3 34.4,7.6 C34.4,6.9 34.2,6.4 33.8,5.9 C33.4,5.5 33,5.2 32.4,5.2 C31.9,5.2 31.4,5.4 31,5.9 C30.6,6.5 30.4,7.1 30.4,7.7 L30.4,7.7 Z"></path>
                        <path d="M46,10.7 C45.1,11.6 44,12 42.7,12 C41.4,12 40.4,11.6 39.6,10.8 C38.8,10 38.4,9 38.4,7.7 C38.4,6.4 38.8,5.4 39.7,4.6 C40.5,3.8 41.5,3.4 42.7,3.4 C43.8,3.4 44.8,3.7 45.6,4.4 C46.4,5.1 46.8,6 46.8,7.2 L46.8,8.4 L40.7,8.4 C40.8,8.9 41,9.2 41.4,9.5 C41.8,9.8 42.3,9.9 42.8,9.9 C43.6,9.9 44.3,9.6 44.8,9.1 L46,10.7 L46,10.7 Z M43.8,5.7 C43.5,5.4 43.1,5.3 42.6,5.3 C42.1,5.3 41.7,5.4 41.3,5.7 C40.9,6 40.7,6.4 40.6,6.8 L44.2,6.8 C44.3,6.4 44.1,6 43.8,5.7 L43.8,5.7 Z"></path>
                        <polygon points="50.7 11.9 48.4 11.9 48.4 0.4 50.7 0.4"></polygon>
                        <path d="M53.1,2.5 C52.8,2.2 52.7,1.9 52.7,1.5 C52.7,1.1 52.8,0.8 53.1,0.5 C53.4,0.2 53.7,0.1 54.1,0.1 C54.5,0.1 54.8,0.2 55.1,0.5 C55.4,0.8 55.5,1.1 55.5,1.5 C55.5,1.9 55.4,2.2 55.1,2.5 C54.8,2.8 54.5,2.9 54.1,2.9 C53.7,2.9 53.3,2.8 53.1,2.5 L53.1,2.5 Z M55.2,11.9 L52.9,11.9 L52.9,3.6 L55.2,3.6 L55.2,11.9 L55.2,11.9 Z"></path>
                        <path d="M58.2,12 L58.2,3.5 L60.5,3.5 L60.5,12.2 C60.5,13.1 60.2,13.8 59.7,14.3 C59.2,14.8 58.5,15.1 57.7,15.1 C56.9,15.1 56.1,14.8 55.4,14.1 L56.5,12.4 C56.8,12.8 57.2,12.9 57.5,12.9 C57.7,12.9 57.9,12.8 58,12.7 C58.1,12.6 58.2,12.3 58.2,12 L58.2,12 Z M58.4,2.5 C58.1,2.2 58,1.9 58,1.5 C58,1.1 58.1,0.8 58.4,0.5 C58.7,0.2 59,0.1 59.4,0.1 C59.8,0.1 60.1,0.2 60.4,0.5 C60.7,0.8 60.8,1.1 60.8,1.5 C60.8,1.9 60.7,2.2 60.4,2.5 C60.1,2.8 59.8,2.9 59.4,2.9 C59,2.9 58.6,2.8 58.4,2.5 L58.4,2.5 Z"></path>
                        <polygon points="65 11.9 62.7 11.9 62.7 0.4 65 0.4 65 6.3 67.6 3.6 70.5 3.6 67.3 7 70.6 12 67.9 12 65.8 8.8 65 9.6"></polygon>
                        <path d="M79.1,10.7 C78.2,11.6 77.1,12 75.8,12 C74.5,12 73.5,11.6 72.7,10.8 C71.9,10 71.5,9 71.5,7.7 C71.5,6.4 71.9,5.4 72.8,4.6 C73.6,3.8 74.6,3.4 75.8,3.4 C76.9,3.4 77.9,3.7 78.7,4.4 C79.5,5.1 79.9,6 79.9,7.2 L79.9,8.4 L73.8,8.4 C73.9,8.9 74.1,9.2 74.5,9.5 C74.9,9.8 75.4,9.9 75.9,9.9 C76.7,9.9 77.4,9.6 77.9,9.1 L79.1,10.7 L79.1,10.7 Z M76.9,5.7 C76.6,5.4 76.2,5.3 75.7,5.3 C75.2,5.3 74.8,5.4 74.4,5.7 C74,6 73.8,6.4 73.7,6.8 L77.3,6.8 C77.4,6.4 77.2,6 76.9,5.7 L76.9,5.7 Z"></path>
                        <polygon points="91.5 7.9 94.2 1 96.8 1 92.5 11.8 90.5 11.8 86.2 1 88.8 1"></polygon>
                        <path d="M105.1,10.7 C104.2,11.6 103.1,12 101.8,12 C100.5,12 99.5,11.6 98.7,10.8 C97.9,10 97.5,9 97.5,7.7 C97.5,6.4 97.9,5.4 98.8,4.6 C99.6,3.8 100.6,3.4 101.8,3.4 C102.9,3.4 103.9,3.7 104.7,4.4 C105.5,5.1 105.9,6 105.9,7.2 L105.9,8.4 L99.8,8.4 C99.9,8.9 100.1,9.2 100.5,9.5 C100.9,9.8 101.4,9.9 101.9,9.9 C102.7,9.9 103.4,9.6 103.9,9.1 L105.1,10.7 L105.1,10.7 Z M102.9,5.7 C102.6,5.4 102.2,5.3 101.7,5.3 C101.2,5.3 100.8,5.4 100.4,5.7 C100,6 99.8,6.4 99.7,6.8 L103.3,6.8 C103.4,6.4 103.2,6 102.9,5.7 L102.9,5.7 Z"></path>
                        <path d="M111.8,5.6 C111.1,5.6 110.6,5.8 110.3,6.3 C110,6.8 109.8,7.4 109.8,8.2 L109.8,11.8 L107.5,11.8 L107.5,3.5 L109.8,3.5 L109.8,4.6 C110.1,4.3 110.5,4 110.9,3.7 C111.3,3.5 111.8,3.3 112.3,3.3 L112.3,5.5 L111.8,5.5 L111.8,5.6 Z"></path>
                        <path d="M121,10.7 C120.1,11.6 119,12 117.7,12 C116.4,12 115.4,11.6 114.6,10.8 C113.8,10 113.4,9 113.4,7.7 C113.4,6.4 113.8,5.4 114.7,4.6 C115.5,3.8 116.5,3.4 117.7,3.4 C118.8,3.4 119.8,3.7 120.6,4.4 C121.4,5.1 121.8,6 121.8,7.2 L121.8,8.4 L115.7,8.4 C115.8,8.9 116,9.2 116.4,9.5 C116.8,9.8 117.3,9.9 117.8,9.9 C118.6,9.9 119.3,9.6 119.8,9.1 L121,10.7 L121,10.7 Z M118.7,5.7 C118.4,5.4 118,5.3 117.5,5.3 C117,5.3 116.6,5.4 116.2,5.7 C115.8,6 115.6,6.4 115.5,6.8 L119.1,6.8 C119.2,6.4 119.1,6 118.7,5.7 L118.7,5.7 Z"></path>
                        <path d="M125.6,7.2 L125.6,11.8 L123.3,11.8 L123.3,3.5 L125.6,3.5 L125.6,4.4 C126.3,3.7 127.1,3.3 128,3.3 C128.9,3.3 129.6,3.6 130.2,4.2 C130.8,4.8 131.1,5.6 131.1,6.7 L131.1,11.7 L128.8,11.7 L128.8,7 C128.8,5.7 128.3,5.1 127.4,5.1 C126.9,5.1 126.5,5.3 126.2,5.6 C125.8,6.1 125.6,6.6 125.6,7.2 L125.6,7.2 Z"></path>
                        <path d="M133.4,2.5 C133.1,2.2 133,1.9 133,1.5 C133,1.1 133.1,0.8 133.4,0.5 C133.7,0.2 134,0.1 134.4,0.1 C134.8,0.1 135.1,0.2 135.4,0.5 C135.7,0.8 135.8,1.1 135.8,1.5 C135.8,1.9 135.7,2.2 135.4,2.5 C135.1,2.8 134.8,2.9 134.4,2.9 C134,2.9 133.6,2.8 133.4,2.5 L133.4,2.5 Z M135.5,11.9 L133.2,11.9 L133.2,3.6 L135.5,3.6 L135.5,11.9 L135.5,11.9 Z"></path>
                        <path d="M143.8,10.5 C143.1,11.3 142.2,11.7 141.1,11.7 C140,11.7 139.1,11.3 138.4,10.6 C137.7,9.9 137.3,8.9 137.3,7.7 C137.3,6.5 137.7,5.5 138.5,4.7 C139.3,3.9 140.1,3.5 141.1,3.5 C142.1,3.5 142.9,3.9 143.6,4.7 L143.6,3.6 L145.9,3.6 L145.9,10.8 C145.9,11.5 145.8,12.2 145.5,12.8 C145.2,13.4 144.9,13.8 144.5,14.2 C143.6,14.9 142.6,15.2 141.5,15.2 C140.9,15.2 140.3,15.1 139.6,14.9 C139,14.7 138.4,14.4 137.9,14 L138.8,12.3 C139.6,12.9 140.4,13.2 141.2,13.2 C142,13.2 142.7,13 143.2,12.6 C143.6,12.1 143.8,11.4 143.8,10.5 L143.8,10.5 Z M143.5,7.5 C143.5,6.8 143.3,6.3 142.9,5.9 C142.5,5.5 142.1,5.3 141.5,5.3 C140.9,5.3 140.5,5.5 140.1,5.9 C139.7,6.3 139.5,6.8 139.5,7.5 C139.5,8.2 139.7,8.7 140.1,9.1 C140.5,9.5 141,9.7 141.5,9.7 C142,9.7 142.5,9.5 142.9,9.1 C143.3,8.7 143.5,8.2 143.5,7.5 L143.5,7.5 Z"></path>
                        <path d="M148.2,2.5 C147.9,2.2 147.8,1.9 147.8,1.5 C147.8,1.1 147.9,0.8 148.2,0.5 C148.5,0.2 148.8,0.1 149.2,0.1 C149.6,0.1 149.9,0.2 150.2,0.5 C150.5,0.8 150.6,1.1 150.6,1.5 C150.6,1.9 150.5,2.2 150.2,2.5 C149.9,2.8 149.6,2.9 149.2,2.9 C148.8,2.9 148.4,2.8 148.2,2.5 L148.2,2.5 Z M150.3,11.9 L148,11.9 L148,3.6 L150.3,3.6 L150.3,11.9 L150.3,11.9 Z"></path>
                        <path d="M154.8,7.2 L154.8,11.8 L152.5,11.8 L152.5,3.5 L154.8,3.5 L154.8,4.4 C155.5,3.7 156.3,3.3 157.2,3.3 C158.1,3.3 158.8,3.6 159.4,4.2 C160,4.8 160.3,5.6 160.3,6.7 L160.3,11.7 L158,11.7 L158,7 C158,5.7 157.5,5.1 156.6,5.1 C156.1,5.1 155.7,5.3 155.4,5.6 C155,6.1 154.8,6.6 154.8,7.2 L154.8,7.2 Z"></path>
                        <path d="M168.5,10.5 C167.8,11.3 166.9,11.7 165.8,11.7 C164.7,11.7 163.8,11.3 163.1,10.6 C162.4,9.9 162,8.9 162,7.7 C162,6.5 162.4,5.5 163.2,4.7 C164,3.9 164.8,3.5 165.8,3.5 C166.8,3.5 167.6,3.9 168.3,4.7 L168.3,3.6 L170.6,3.6 L170.6,10.8 C170.6,11.5 170.5,12.2 170.2,12.8 C169.9,13.4 169.6,13.8 169.2,14.2 C168.3,14.9 167.3,15.2 166.2,15.2 C165.6,15.2 165,15.1 164.3,14.9 C163.7,14.7 163.1,14.4 162.6,14 L163.5,12.3 C164.3,12.9 165.1,13.2 165.9,13.2 C166.7,13.2 167.4,13 167.9,12.6 C168.4,12.2 168.5,11.4 168.5,10.5 L168.5,10.5 Z M168.2,7.5 C168.2,6.8 168,6.3 167.6,5.9 C167.2,5.5 166.8,5.3 166.2,5.3 C165.7,5.3 165.2,5.5 164.8,5.9 C164.4,6.3 164.2,6.8 164.2,7.5 C164.2,8.2 164.4,8.7 164.8,9.1 C165.2,9.5 165.7,9.7 166.2,9.7 C166.7,9.7 167.2,9.5 167.6,9.1 C168,8.7 168.2,8.2 168.2,7.5 L168.2,7.5 Z"></path>
                        <polygon points="180.7 11.9 177.4 3.6 179.8 3.6 181.9 8.8 184 3.6 186.4 3.6 183.1 11.9"></polygon>
                        <path d="M194.5,11.9 L192.3,11.9 L192.3,10.9 C191.7,11.7 191,12 190.1,12 C189.2,12 188.5,11.7 187.9,11.2 C187.3,10.7 187,10 187,9.2 C187,8.4 187.3,7.7 187.9,7.3 C188.5,6.9 189.4,6.7 190.4,6.7 L192.1,6.7 L192.1,6.7 C192.1,5.8 191.6,5.4 190.7,5.4 C190.3,5.4 189.9,5.5 189.4,5.6 C188.9,5.7 188.6,6 188.3,6.2 L187.3,4.7 C188.4,3.9 189.6,3.5 191,3.5 C192,3.5 192.8,3.8 193.5,4.3 C194.1,4.8 194.5,5.6 194.5,6.7 L194.5,11.9 L194.5,11.9 Z M192.2,8.7 L192.2,8.3 L190.7,8.3 C189.8,8.3 189.3,8.6 189.3,9.2 C189.3,9.5 189.4,9.7 189.6,9.9 C189.8,10.1 190.1,10.1 190.5,10.1 C190.9,10.1 191.3,10 191.6,9.7 C192,9.5 192.2,9.1 192.2,8.7 L192.2,8.7 Z"></path>
                        <path d="M198.9,7.2 L198.9,11.8 L196.6,11.8 L196.6,3.5 L198.9,3.5 L198.9,4.4 C199.6,3.7 200.4,3.3 201.3,3.3 C202.2,3.3 202.9,3.6 203.5,4.2 C204.1,4.8 204.4,5.6 204.4,6.7 L204.4,11.7 L202,11.7 L202,7 C202,5.7 201.5,5.1 200.6,5.1 C200.1,5.1 199.7,5.3 199.4,5.6 C199.1,6.1 198.9,6.6 198.9,7.2 L198.9,7.2 Z"></path>
                        <path d="M3.5,21.8 C3.3,22 3.2,22.2 3.2,22.6 C3.2,22.9 3.3,23.2 3.6,23.3 C3.9,23.5 4.5,23.7 5.6,24 C6.6,24.3 7.4,24.6 8,25.1 C8.6,25.6 8.9,26.3 8.9,27.3 C8.9,28.3 8.5,29.1 7.8,29.7 C7.1,30.3 6.1,30.6 4.9,30.6 C3.2,30.6 1.7,30 0.3,28.7 L1.7,26.9 C2.9,27.9 3.9,28.4 4.9,28.4 C5.3,28.4 5.7,28.3 5.9,28.1 C6.2,27.9 6.3,27.7 6.3,27.3 C6.3,26.9 6.2,26.7 5.9,26.5 C5.6,26.3 5.1,26.1 4.3,25.9 C3,25.6 2.1,25.2 1.5,24.7 C0.9,24.2 0.6,23.5 0.6,22.4 C0.6,21.4 1,20.6 1.7,20 C2.4,19.4 3.4,19.2 4.5,19.2 C5.2,19.2 5.9,19.3 6.7,19.6 C7.4,19.8 8,20.2 8.6,20.6 L7.4,22.4 C6.5,21.7 5.5,21.3 4.5,21.3 C4.1,21.5 3.7,21.6 3.5,21.8 L3.5,21.8 Z"></path>
                        <path d="M13.1,23.8 L13.1,27.5 C13.1,27.8 13.2,28.1 13.3,28.2 C13.5,28.4 13.7,28.5 13.9,28.5 C14.3,28.5 14.7,28.3 15,27.9 L15.9,29.5 C15.2,30.2 14.4,30.5 13.6,30.5 C12.8,30.5 12.1,30.2 11.6,29.7 C11,29.2 10.8,28.5 10.8,27.6 L10.8,23.8 L9.8,23.8 L9.8,22.1 L10.8,22.1 L10.8,19.6 L13.1,19.6 L13.1,22.1 L15.1,22.1 L15.1,23.8 L13.1,23.8 L13.1,23.8 Z"></path>
                        <path d="M22.5,26.6 L22.5,22.1 L24.8,22.1 L24.8,30.4 L22.5,30.4 L22.5,29.3 C21.9,30.1 21.2,30.5 20.3,30.5 C19.4,30.5 18.6,30.2 18,29.6 C17.4,29 17.1,28.2 17.1,27.1 L17.1,22.1 L19.4,22.1 L19.4,26.6 C19.4,27.9 19.9,28.5 20.8,28.5 C21.3,28.5 21.7,28.3 22,28 C22.4,27.7 22.5,27.2 22.5,26.6 L22.5,26.6 Z"></path>
                        <path d="M30.4,30.5 C29.4,30.5 28.5,30.1 27.8,29.2 C27,28.4 26.6,27.3 26.6,26.1 C26.6,24.9 27,23.9 27.7,23.1 C28.5,22.3 29.3,21.9 30.3,21.9 C31.3,21.9 32.1,22.3 32.8,23 L32.8,18.9 L35.1,18.9 L35.1,30.4 L32.8,30.4 L32.8,29.3 C32.2,30.1 31.4,30.5 30.4,30.5 L30.4,30.5 Z M28.9,26.3 C28.9,27 29.1,27.5 29.5,27.9 C29.9,28.3 30.4,28.5 30.9,28.5 C31.4,28.5 31.9,28.3 32.3,27.9 C32.7,27.5 32.9,26.9 32.9,26.2 C32.9,25.5 32.7,25 32.3,24.5 C31.9,24.1 31.5,23.8 30.9,23.8 C30.3,23.8 29.9,24 29.5,24.5 C29.1,25 28.9,25.6 28.9,26.3 L28.9,26.3 Z"></path>
                        <path d="M37.5,21 C37.2,20.7 37.1,20.4 37.1,20 C37.1,19.6 37.2,19.3 37.5,19 C37.8,18.7 38.1,18.6 38.5,18.6 C38.9,18.6 39.2,18.7 39.5,19 C39.8,19.3 39.9,19.6 39.9,20 C39.9,20.4 39.8,20.7 39.5,21 C39.2,21.3 38.9,21.4 38.5,21.4 C38.1,21.4 37.8,21.3 37.5,21 L37.5,21 Z M39.7,30.4 L37.4,30.4 L37.4,22.1 L39.7,22.1 L39.7,30.4 L39.7,30.4 Z"></path>
                        <path d="M49,29.2 C48.1,30.1 47,30.5 45.7,30.5 C44.4,30.5 43.4,30.1 42.6,29.3 C41.8,28.5 41.4,27.5 41.4,26.2 C41.4,24.9 41.8,23.9 42.7,23.1 C43.5,22.3 44.5,21.9 45.7,21.9 C46.8,21.9 47.8,22.2 48.6,22.9 C49.4,23.6 49.8,24.5 49.8,25.7 L49.8,26.9 L43.7,26.9 C43.8,27.4 44,27.7 44.4,28 C44.8,28.3 45.3,28.4 45.8,28.4 C46.6,28.4 47.3,28.1 47.8,27.6 L49,29.2 L49,29.2 Z M46.8,24.3 C46.5,24 46.1,23.9 45.6,23.9 C45.1,23.9 44.7,24 44.3,24.3 C43.9,24.6 43.7,25 43.6,25.4 L47.2,25.4 C47.3,24.9 47.1,24.5 46.8,24.3 L46.8,24.3 Z"></path>
                        <path d="M56.2,22 C57.2,22 58.1,22.4 58.8,23.2 C59.6,24 59.9,25 59.9,26.2 C59.9,27.4 59.5,28.5 58.7,29.3 C57.9,30.1 57.1,30.6 56.1,30.6 C55.1,30.6 54.3,30.2 53.7,29.4 L53.7,30.5 L51.4,30.5 L51.4,19 L53.7,19 L53.7,23.1 C54.3,22.3 55.2,22 56.2,22 L56.2,22 Z M53.7,26.3 C53.7,27 53.9,27.5 54.3,28 C54.7,28.4 55.1,28.6 55.7,28.6 C56.3,28.6 56.7,28.4 57.1,28 C57.5,27.6 57.7,27 57.7,26.4 C57.7,25.8 57.5,25.2 57.1,24.7 C56.7,24.2 56.2,24 55.7,24 C55.2,24 54.7,24.2 54.3,24.7 C53.9,25 53.7,25.6 53.7,26.3 L53.7,26.3 Z"></path>
                        <path d="M68.9,29.2 C68,30.1 66.9,30.5 65.6,30.5 C64.3,30.5 63.3,30.1 62.5,29.3 C61.7,28.5 61.3,27.5 61.3,26.2 C61.3,24.9 61.7,23.9 62.6,23.1 C63.4,22.3 64.4,21.9 65.6,21.9 C66.7,21.9 67.7,22.2 68.5,22.9 C69.3,23.6 69.7,24.5 69.7,25.7 L69.7,26.9 L63.6,26.9 C63.7,27.4 63.9,27.7 64.3,28 C64.7,28.3 65.2,28.4 65.7,28.4 C66.5,28.4 67.2,28.1 67.7,27.6 L68.9,29.2 L68.9,29.2 Z M66.6,24.3 C66.3,24 65.9,23.9 65.4,23.9 C64.9,23.9 64.5,24 64.1,24.3 C63.7,24.6 63.5,25 63.4,25.4 L67,25.4 C67.1,24.9 67,24.5 66.6,24.3 L66.6,24.3 Z"></path>
                        <path d="M77.4,29 C76.7,29.8 75.8,30.2 74.7,30.2 C73.6,30.2 72.7,29.8 72,29.1 C71.3,28.4 70.9,27.4 70.9,26.2 C70.9,25 71.3,24 72.1,23.2 C72.9,22.4 73.7,22 74.7,22 C75.7,22 76.5,22.4 77.2,23.2 L77.2,22.1 L79.5,22.1 L79.5,29.3 C79.5,30 79.4,30.7 79.1,31.3 C78.8,31.9 78.5,32.3 78.1,32.7 C77.2,33.4 76.2,33.7 75.1,33.7 C74.5,33.7 73.9,33.6 73.2,33.4 C72.6,33.2 72,32.9 71.5,32.5 L72.4,30.8 C73.2,31.4 74,31.7 74.8,31.7 C75.6,31.7 76.3,31.5 76.8,31.1 C77.3,30.7 77.4,29.9 77.4,29 L77.4,29 Z M77,26.1 C77,25.4 76.8,24.9 76.4,24.5 C76,24.1 75.6,23.9 75,23.9 C74.5,23.9 74,24.1 73.6,24.5 C73.2,24.9 73,25.4 73,26.1 C73,26.8 73.2,27.3 73.6,27.7 C74,28.1 74.5,28.3 75,28.3 C75.5,28.3 76,28.1 76.4,27.7 C76.8,27.3 77,26.7 77,26.1 L77,26.1 Z"></path>
                        <path d="M88.7,29.2 C87.8,30.1 86.7,30.5 85.4,30.5 C84.1,30.5 83.1,30.1 82.3,29.3 C81.5,28.5 81.1,27.5 81.1,26.2 C81.1,24.9 81.5,23.9 82.4,23.1 C83.2,22.3 84.2,21.9 85.4,21.9 C86.5,21.9 87.5,22.2 88.3,22.9 C89.1,23.6 89.5,24.5 89.5,25.7 L89.5,26.9 L83.4,26.9 C83.5,27.4 83.7,27.7 84.1,28 C84.5,28.3 85,28.4 85.5,28.4 C86.3,28.4 87,28.1 87.5,27.6 L88.7,29.2 L88.7,29.2 Z M86.5,24.3 C86.2,24 85.8,23.9 85.3,23.9 C84.8,23.9 84.4,24 84,24.3 C83.6,24.6 83.4,25 83.3,25.4 L87,25.4 C87,24.9 86.8,24.5 86.5,24.3 L86.5,24.3 Z"></path>
                        <polygon points="93.4 30.4 91.1 30.4 91.1 18.9 93.4 18.9"></polygon>
                        <path d="M102.8,29.2 C101.9,30.1 100.8,30.5 99.5,30.5 C98.2,30.5 97.2,30.1 96.4,29.3 C95.6,28.5 95.2,27.5 95.2,26.2 C95.2,24.9 95.6,23.9 96.5,23.1 C97.3,22.3 98.3,21.9 99.5,21.9 C100.6,21.9 101.6,22.2 102.4,22.9 C103.2,23.6 103.6,24.5 103.6,25.7 L103.6,26.9 L97.5,26.9 C97.6,27.4 97.8,27.7 98.2,28 C98.6,28.3 99.1,28.4 99.6,28.4 C100.4,28.4 101.1,28.1 101.6,27.6 L102.8,29.2 L102.8,29.2 Z M100.5,24.3 C100.2,24 99.8,23.9 99.3,23.9 C98.8,23.9 98.4,24 98,24.3 C97.6,24.6 97.4,25 97.3,25.4 L100.9,25.4 C101,24.9 100.9,24.5 100.5,24.3 L100.5,24.3 Z"></path>
                        <path d="M105.3,21 C105,20.7 104.9,20.4 104.9,20 C104.9,19.6 105,19.3 105.3,19 C105.6,18.7 105.9,18.6 106.3,18.6 C106.7,18.6 107,18.7 107.3,19 C107.6,19.3 107.7,19.6 107.7,20 C107.7,20.4 107.6,20.7 107.3,21 C107,21.3 106.7,21.4 106.3,21.4 C105.9,21.4 105.6,21.3 105.3,21 L105.3,21 Z M107.4,30.4 L105.1,30.4 L105.1,22.1 L107.4,22.1 L107.4,30.4 L107.4,30.4 Z"></path>
                        <path d="M112.9,30.5 C111.9,30.5 111,30.1 110.3,29.2 C109.5,28.4 109.1,27.3 109.1,26.1 C109.1,24.9 109.5,23.9 110.2,23.1 C111,22.3 111.8,21.9 112.8,21.9 C113.8,21.9 114.6,22.3 115.3,23 L115.3,18.9 L117.6,18.9 L117.6,30.4 L115.3,30.4 L115.3,29.3 C114.7,30.1 113.9,30.5 112.9,30.5 L112.9,30.5 Z M111.5,26.3 C111.5,27 111.7,27.5 112.1,27.9 C112.5,28.3 113,28.5 113.5,28.5 C114,28.5 114.5,28.3 114.9,27.9 C115.3,27.5 115.5,26.9 115.5,26.2 C115.5,25.5 115.3,25 114.9,24.5 C114.5,24.1 114.1,23.8 113.5,23.8 C113,23.8 112.5,24 112.1,24.5 C111.7,25 111.5,25.6 111.5,26.3 L111.5,26.3 Z"></path>
                        <path d="M120.1,21 C119.8,20.7 119.7,20.4 119.7,20 C119.7,19.6 119.8,19.3 120.1,19 C120.4,18.7 120.7,18.6 121.1,18.6 C121.5,18.6 121.8,18.7 122.1,19 C122.4,19.3 122.5,19.6 122.5,20 C122.5,20.4 122.4,20.7 122.1,21 C121.8,21.3 121.5,21.4 121.1,21.4 C120.7,21.4 120.4,21.3 120.1,21 L120.1,21 Z M122.2,30.4 L119.9,30.4 L119.9,22.1 L122.2,22.1 L122.2,30.4 L122.2,30.4 Z"></path>
                        <path d="M126.7,25.8 L126.7,30.4 L124.4,30.4 L124.4,22.1 L126.7,22.1 L126.7,23 C127.4,22.3 128.2,21.9 129.1,21.9 C130,21.9 130.7,22.2 131.3,22.8 C131.9,23.4 132.2,24.2 132.2,25.3 L132.2,30.3 L129.9,30.3 L129.9,25.6 C129.9,24.3 129.4,23.7 128.5,23.7 C128,23.7 127.6,23.9 127.3,24.2 C126.9,24.6 126.7,25.1 126.7,25.8 L126.7,25.8 Z"></path>
                        <path d="M140.4,29 C139.7,29.8 138.8,30.2 137.7,30.2 C136.6,30.2 135.7,29.8 135,29.1 C134.3,28.4 133.9,27.4 133.9,26.2 C133.9,25 134.3,24 135.1,23.2 C135.9,22.4 136.7,22 137.7,22 C138.7,22 139.5,22.4 140.2,23.2 L140.2,22.1 L142.5,22.1 L142.5,29.3 C142.5,30 142.4,30.7 142.1,31.3 C141.8,31.9 141.5,32.3 141.1,32.7 C140.2,33.4 139.2,33.7 138.1,33.7 C137.5,33.7 136.9,33.6 136.2,33.4 C135.6,33.2 135,32.9 134.5,32.5 L135.4,30.8 C136.2,31.4 137,31.7 137.8,31.7 C138.6,31.7 139.3,31.5 139.8,31.1 C140.2,30.6 140.4,29.9 140.4,29 L140.4,29 Z M140.1,26.1 C140.1,25.4 139.9,24.9 139.5,24.5 C139.1,24.1 138.7,23.9 138.1,23.9 C137.5,23.9 137.1,24.1 136.7,24.5 C136.3,24.9 136.1,25.4 136.1,26.1 C136.1,26.8 136.3,27.3 136.7,27.7 C137.1,28.1 137.6,28.3 138.1,28.3 C138.7,28.3 139.1,28.1 139.5,27.7 C139.9,27.3 140.1,26.7 140.1,26.1 L140.1,26.1 Z"></path>
                        <path d="M150.8,27.8 C150.8,28.6 150.5,29.3 149.9,29.8 C149.3,30.3 148.5,30.5 147.6,30.5 C147,30.5 146.3,30.4 145.7,30.2 C145,30 144.4,29.7 143.9,29.2 L144.9,27.7 C145.8,28.4 146.7,28.7 147.7,28.7 C148,28.7 148.2,28.6 148.4,28.5 C148.6,28.4 148.7,28.2 148.7,28 C148.7,27.8 148.6,27.6 148.3,27.5 C148.1,27.3 147.7,27.2 147.2,27 C146.7,26.9 146.4,26.7 146.2,26.6 C146,26.5 145.7,26.3 145.4,26.2 C144.8,25.8 144.5,25.2 144.5,24.5 C144.5,23.8 144.8,23.1 145.4,22.6 C146,22.1 146.8,21.9 147.8,21.9 C148.8,21.9 149.8,22.2 150.7,22.9 L149.8,24.4 C149.1,23.9 148.4,23.7 147.6,23.7 C146.8,23.7 146.5,23.9 146.5,24.3 C146.5,24.5 146.6,24.7 146.8,24.8 C147,24.9 147.4,25.1 147.9,25.2 C148.4,25.4 148.8,25.5 149,25.6 C149.2,25.7 149.5,25.8 149.8,26 C150.5,26.4 150.8,27 150.8,27.8 L150.8,27.8 Z"></path>
                        <path d="M152.8,21 C152.5,20.7 152.4,20.4 152.4,20 C152.4,19.6 152.5,19.3 152.8,19 C153.1,18.7 153.4,18.6 153.8,18.6 C154.2,18.6 154.5,18.7 154.8,19 C155.1,19.3 155.2,19.6 155.2,20 C155.2,20.4 155.1,20.7 154.8,21 C154.5,21.3 154.2,21.4 153.8,21.4 C153.4,21.4 153,21.3 152.8,21 L152.8,21 Z M154.9,30.4 L152.6,30.4 L152.6,22.1 L154.9,22.1 L154.9,30.4 L154.9,30.4 Z"></path>
                        <path d="M159.4,25.8 L159.4,30.4 L157.1,30.4 L157.1,22.1 L159.4,22.1 L159.4,23 C160.1,22.3 160.9,21.9 161.8,21.9 C162.7,21.9 163.4,22.2 164,22.8 C164.6,23.4 164.9,24.2 164.9,25.3 L164.9,30.3 L162.6,30.3 L162.6,25.6 C162.6,24.3 162.1,23.7 161.2,23.7 C160.7,23.7 160.3,23.9 160,24.2 C159.6,24.6 159.4,25.1 159.4,25.8 L159.4,25.8 Z"></path>
                        <path d="M173.2,27.8 C173.2,28.6 172.9,29.3 172.3,29.8 C171.7,30.3 170.9,30.5 170,30.5 C169.4,30.5 168.7,30.4 168.1,30.2 C167.4,30 166.8,29.7 166.3,29.2 L167.3,27.7 C168.2,28.4 169.1,28.7 170.1,28.7 C170.4,28.7 170.6,28.6 170.8,28.5 C171,28.4 171.1,28.2 171.1,28 C171.1,27.8 171,27.6 170.7,27.5 C170.5,27.3 170.1,27.2 169.6,27 C169.1,26.9 168.8,26.7 168.6,26.6 C168.4,26.5 168.1,26.3 167.8,26.2 C167.2,25.8 166.9,25.2 166.9,24.5 C166.9,23.8 167.2,23.1 167.8,22.6 C168.4,22.1 169.2,21.9 170.2,21.9 C171.2,21.9 172.2,22.2 173.1,22.9 L172.2,24.4 C171.5,23.9 170.8,23.7 170,23.7 C169.2,23.7 168.9,23.9 168.9,24.3 C168.9,24.5 169,24.7 169.2,24.8 C169.4,24.9 169.8,25.1 170.3,25.2 C170.8,25.4 171.2,25.5 171.4,25.6 C171.6,25.7 171.9,25.8 172.2,26 C172.9,26.4 173.2,27 173.2,27.8 L173.2,27.8 Z"></path>
                        <path d="M177.7,23.8 L177.7,27.5 C177.7,27.8 177.8,28.1 177.9,28.2 C178.1,28.4 178.3,28.5 178.5,28.5 C178.9,28.5 179.3,28.3 179.6,27.9 L180.5,29.5 C179.8,30.2 179,30.5 178.2,30.5 C177.4,30.5 176.7,30.2 176.2,29.7 C175.6,29.2 175.4,28.5 175.4,27.6 L175.4,23.8 L174.4,23.8 L174.4,22.1 L175.4,22.1 L175.4,19.6 L177.7,19.6 L177.7,22.1 L179.7,22.1 L179.7,23.8 L177.7,23.8 L177.7,23.8 Z"></path>
                        <path d="M181.9,21 C181.6,20.7 181.5,20.4 181.5,20 C181.5,19.6 181.6,19.3 181.9,19 C182.2,18.7 182.5,18.6 182.9,18.6 C183.3,18.6 183.6,18.7 183.9,19 C184.2,19.3 184.3,19.6 184.3,20 C184.3,20.4 184.2,20.7 183.9,21 C183.6,21.3 183.3,21.4 182.9,21.4 C182.5,21.4 182.2,21.3 181.9,21 L181.9,21 Z M184,30.4 L181.7,30.4 L181.7,22.1 L184,22.1 L184,30.4 L184,30.4 Z"></path>
                        <path d="M189,23.8 L189,27.5 C189,27.8 189.1,28.1 189.2,28.2 C189.4,28.4 189.6,28.5 189.8,28.5 C190.2,28.5 190.6,28.3 190.9,27.9 L191.8,29.5 C191.1,30.2 190.3,30.5 189.5,30.5 C188.7,30.5 188,30.2 187.5,29.7 C186.9,29.2 186.7,28.5 186.7,27.6 L186.7,23.8 L185.7,23.8 L185.7,22.1 L186.7,22.1 L186.7,19.6 L189,19.6 L189,22.1 L191,22.1 L191,23.8 L189,23.8 L189,23.8 Z"></path>
                        <path d="M198.4,26.6 L198.4,22.1 L200.7,22.1 L200.7,30.4 L198.4,30.4 L198.4,29.3 C197.8,30.1 197.1,30.5 196.2,30.5 C195.3,30.5 194.5,30.2 193.9,29.6 C193.3,29 193,28.2 193,27.1 L193,22.1 L195.3,22.1 L195.3,26.6 C195.3,27.9 195.8,28.5 196.7,28.5 C197.2,28.5 197.6,28.3 197.9,28 C198.2,27.7 198.4,27.2 198.4,26.6 L198.4,26.6 Z"></path>
                        <path d="M205.7,23.8 L205.7,27.5 C205.7,27.8 205.8,28.1 205.9,28.2 C206.1,28.4 206.3,28.5 206.5,28.5 C206.9,28.5 207.3,28.3 207.6,27.9 L208.5,29.5 C207.8,30.2 207,30.5 206.2,30.5 C205.4,30.5 204.7,30.2 204.2,29.7 C203.7,29.2 203.4,28.5 203.4,27.6 L203.4,23.8 L202.4,23.8 L202.4,22.1 L203.4,22.1 L203.4,19.6 L205.7,19.6 L205.7,22.1 L207.7,22.1 L207.7,23.8 L205.7,23.8 L205.7,23.8 Z"></path>
                        <path d="M216.9,29.2 C216,30.1 214.9,30.5 213.6,30.5 C212.3,30.5 211.3,30.1 210.5,29.3 C209.7,28.5 209.3,27.5 209.3,26.2 C209.3,24.9 209.7,23.9 210.6,23.1 C211.4,22.3 212.4,21.9 213.6,21.9 C214.7,21.9 215.7,22.2 216.5,22.9 C217.3,23.6 217.7,24.5 217.7,25.7 L217.7,26.9 L211.6,26.9 C211.7,27.4 211.9,27.7 212.3,28 C212.7,28.3 213.2,28.4 213.7,28.4 C214.5,28.4 215.2,28.1 215.7,27.6 L216.9,29.2 L216.9,29.2 Z M214.7,24.3 C214.4,24 214,23.9 213.5,23.9 C213,23.9 212.6,24 212.2,24.3 C211.8,24.6 211.6,25 211.5,25.4 L215.1,25.4 C215.2,24.9 215,24.5 214.7,24.3 L214.7,24.3 Z"></path>
                        <path d="M221.6,25.8 L221.6,30.4 L219.3,30.4 L219.3,22.1 L221.6,22.1 L221.6,23 C222.3,22.3 223.1,21.9 224,21.9 C224.9,21.9 225.6,22.2 226.2,22.8 C226.8,23.4 227.1,24.2 227.1,25.3 L227.1,30.3 L224.8,30.3 L224.8,25.6 C224.8,24.3 224.3,23.7 223.4,23.7 C222.9,23.7 222.5,23.9 222.2,24.2 C221.7,24.6 221.6,25.1 221.6,25.8 L221.6,25.8 Z"></path>
                    </g>
                </g>
            </g>
        </g>
    </g>
</svg>