<svg id="Laag_1" data-name="Laag 1" xmlns="http://www.w3.org/2000/svg" viewBox="0 0 221.68 52.93"><defs><style>.cls-1{fill:#1d1d1b;}</style></defs><g id="Group_965" data-name="Group 965"><g id="Group_955" data-name="Group 955"><path id="Path_106" data-name="Path 106" class="cls-1" d="M7,13.14H4.51v6.61H0V1H7.37a8.16,8.16,0,0,1,5.2,1.48,5,5,0,0,1,1.88,4.18,6.13,6.13,0,0,1-.79,3.24A5.62,5.62,0,0,1,11.19,12l3.9,7.55v.19H10.26ZM4.51,9.65H7.37A2.54,2.54,0,0,0,9.3,9,2.58,2.58,0,0,0,10,7.09,2.62,2.62,0,0,0,9.3,5.2a2.55,2.55,0,0,0-1.93-.69H4.51Zm17,10.1H17.2V5.84h4.35ZM17,2.25A1.93,1.93,0,0,1,17.62.73,2.48,2.48,0,0,1,19.35.14a2.52,2.52,0,0,1,1.74.59,1.92,1.92,0,0,1,.66,1.52,1.91,1.91,0,0,1-.67,1.51,2.54,2.54,0,0,1-1.73.6,2.58,2.58,0,0,1-1.74-.6A1.93,1.93,0,0,1,17,2.25ZM28.88,5.83V20.22A5.05,5.05,0,0,1,27.46,24a5.42,5.42,0,0,1-3.91,1.33,9.36,9.36,0,0,1-2-.21V21.87a8.27,8.27,0,0,0,1.22.12,1.6,1.6,0,0,0,1.8-1.34,1.7,1.7,0,0,0,0-.45V5.84ZM24.21,2.25A1.93,1.93,0,0,1,24.88.73a2.85,2.85,0,0,1,3.47,0A2,2,0,0,1,29,2.25a1.94,1.94,0,0,1-.67,1.51,2.81,2.81,0,0,1-3.47,0A1.91,1.91,0,0,1,24.21,2.25Zm14.4,13.59A1,1,0,0,0,38,15a8.53,8.53,0,0,0-2.2-.69,10.13,10.13,0,0,1-2.67-.95,4.41,4.41,0,0,1-1.61-1.42A3.44,3.44,0,0,1,31,10a3.82,3.82,0,0,1,1.58-3.15,6.47,6.47,0,0,1,4.14-1.24,7.23,7.23,0,0,1,4.42,1.24,3.9,3.9,0,0,1,1.67,3.28H38.47c0-1.11-.59-1.67-1.76-1.67a1.77,1.77,0,0,0-1.15.38,1.2,1.2,0,0,0-.46.95,1.06,1.06,0,0,0,.56.93,5.37,5.37,0,0,0,1.81.6,14.8,14.8,0,0,1,2.18.55q3.14,1.08,3.14,3.87a3.64,3.64,0,0,1-1.69,3.1A7.46,7.46,0,0,1,36.72,20a7.63,7.63,0,0,1-3.19-.65,5.24,5.24,0,0,1-2.18-1.75,4,4,0,0,1-.79-2.32h4.05a1.71,1.71,0,0,0,.65,1.41,2.67,2.67,0,0,0,1.58.44,2,2,0,0,0,1.33-.36A1.15,1.15,0,0,0,38.61,15.84Zm12.09.82a1.87,1.87,0,0,0,1.41-.49,1.8,1.8,0,0,0,.49-1.38h4.06A4.8,4.8,0,0,1,55,18.54,6.09,6.09,0,0,1,50.8,20,6.21,6.21,0,0,1,46,18.1a7.54,7.54,0,0,1-1.75-5.27v-.18A8.55,8.55,0,0,1,45,8.93a5.66,5.66,0,0,1,2.24-2.48,6.72,6.72,0,0,1,3.48-.87,6,6,0,0,1,4.3,1.51,5.31,5.31,0,0,1,1.6,4.07H52.6a2.38,2.38,0,0,0-.53-1.66,1.83,1.83,0,0,0-1.41-.58c-1.12,0-1.78.72-2,2.15A14.7,14.7,0,0,0,48.6,13a6,6,0,0,0,.5,2.9A1.72,1.72,0,0,0,50.7,16.66Zm12-9.33a4.76,4.76,0,0,1,7-.39A6.14,6.14,0,0,1,71,11v8.78H66.6V11.07a2.43,2.43,0,0,0-.45-1.63,1.92,1.92,0,0,0-1.53-.52,2.08,2.08,0,0,0-1.89.85v10H58.4V0h4.33Zm10.08,5.33A8.16,8.16,0,0,1,73.62,9,5.88,5.88,0,0,1,76,6.45a7,7,0,0,1,3.56-.87,6.39,6.39,0,0,1,4.92,1.94,7.38,7.38,0,0,1,1.8,5.26v.16a7.2,7.2,0,0,1-1.81,5.16A6.39,6.39,0,0,1,79.53,20a6.49,6.49,0,0,1-4.77-1.78,7,7,0,0,1-1.93-4.83Zm4.33.27a5.14,5.14,0,0,0,.61,2.83,2,2,0,0,0,1.78.9c1.55,0,2.34-1.18,2.37-3.56v-.43q0-3.75-2.39-3.75c-1.45,0-2.23,1.08-2.35,3.23Zm10.46-.27A8,8,0,0,1,88.41,9a5.88,5.88,0,0,1,2.33-2.51,7,7,0,0,1,3.56-.87,6.39,6.39,0,0,1,4.92,1.94,7.38,7.38,0,0,1,1.8,5.26v.16a7.2,7.2,0,0,1-1.81,5.16A6.39,6.39,0,0,1,94.32,20a6.49,6.49,0,0,1-4.77-1.78,7,7,0,0,1-1.94-4.83Zm4.33.27a5.22,5.22,0,0,0,.6,2.83,2,2,0,0,0,1.79.9c1.54,0,2.33-1.18,2.37-3.56v-.43q0-3.75-2.39-3.75c-1.45,0-2.24,1.08-2.36,3.23Zm15.57,6.82h-4.35V0h4.35ZM5.93,33.94l4.18,13,4.16-13h5.94V52.66H15.69V48.29l.43-8.95L11.6,52.66h-3L4.08,39.33l.43,9v4.38H0V33.94ZM33.71,49.17H27.53l-1.08,3.49H21.63l6.86-18.72h4.24l6.92,18.72H34.8Zm-5.1-3.49h4l-2-6.49ZM48,46.05H45.53v6.61H41V33.94h7.37a8.21,8.21,0,0,1,5.21,1.48,5,5,0,0,1,1.88,4.18,6.13,6.13,0,0,1-.79,3.24,5.53,5.53,0,0,1-2.48,2.08l3.91,7.55v.2H51.27Zm-2.44-3.49h2.85a2.56,2.56,0,0,0,1.94-.67,3.05,3.05,0,0,0,0-3.78,2.54,2.54,0,0,0-1.93-.69H45.53Zm27.81,3.76a6.85,6.85,0,0,1-1.06,3.45,6.35,6.35,0,0,1-2.7,2.33,9.11,9.11,0,0,1-4,.82,7.37,7.37,0,0,1-5.82-2.4,10,10,0,0,1-2.12-6.79V42.8a11.37,11.37,0,0,1,1-4.81,7.3,7.3,0,0,1,2.76-3.19,7.74,7.74,0,0,1,4.17-1.13A8.1,8.1,0,0,1,71,35.47a7,7,0,0,1,2.35,4.94H68.88A3.41,3.41,0,0,0,68,38a3.59,3.59,0,0,0-2.47-.74,2.7,2.7,0,0,0-2.47,1.26,8,8,0,0,0-.82,4v1.33A9,9,0,0,0,63,48.1a2.77,2.77,0,0,0,2.59,1.29A3.52,3.52,0,0,0,68,48.65a3.08,3.08,0,0,0,.87-2.32Zm13.74-1.6H80v4.47h8.38v3.47H75.47V33.94H88.39v3.49H80v4h7.09Zm7.64,4.47h7.86v3.47H90.21V33.94h4.51ZM117,33.94l4.18,13,4.17-13h5.94V52.66h-4.53V48.29l.44-8.95-4.53,13.32h-3l-4.54-13.33.43,9v4.38H111V33.94Zm22,18.72h-4.5V33.94h4.5Zm18.78,0h-4.49L146.57,41V52.66h-4.51V33.94h4.51l6.62,11.65V33.94h4.5Zm18.18-2.32a7.32,7.32,0,0,1-3,1.87,13.12,13.12,0,0,1-4.4.7,7.83,7.83,0,0,1-5.87-2.24,9.19,9.19,0,0,1-2.36-6.27V42.78a11.1,11.1,0,0,1,1-4.82A7.24,7.24,0,0,1,164,34.78a7.94,7.94,0,0,1,4.22-1.11,8.27,8.27,0,0,1,5.43,1.6A6.77,6.77,0,0,1,175.86,40h-4.34a3.58,3.58,0,0,0-1-2.23,3.21,3.21,0,0,0-2.19-.67,2.92,2.92,0,0,0-2.62,1.44,7.64,7.64,0,0,0-.94,4.11v1.13a7.46,7.46,0,0,0,1,4.21,3.37,3.37,0,0,0,3,1.41,3.74,3.74,0,0,0,2.62-.78v-2.9h-3.13v-3.1h7.65Zm14.23-5.62H183v4.47h8.39v3.47H178.5V33.94h12.92v3.49H183v4h7.1Zm7.64,4.47h7.85v3.47H193.23V33.94h4.51Zm19.41-1.51a1.84,1.84,0,0,0-.7-1.54A8.51,8.51,0,0,0,214,45a23,23,0,0,1-2.88-1.14q-3.65-1.79-3.64-4.91a4.48,4.48,0,0,1,.91-2.75A5.84,5.84,0,0,1,211,34.34a9.92,9.92,0,0,1,3.73-.66,8.64,8.64,0,0,1,3.62.72,5.72,5.72,0,0,1,2.49,2.05,5.46,5.46,0,0,1,.89,3h-4.5a2.27,2.27,0,0,0-.7-1.77,2.69,2.69,0,0,0-1.9-.63,3.08,3.08,0,0,0-1.91.53,1.57,1.57,0,0,0-.44,2.18,1.67,1.67,0,0,0,.51.48,9.76,9.76,0,0,0,2.72,1.21,16.74,16.74,0,0,1,3.18,1.34,5.36,5.36,0,0,1,3,4.82,4.56,4.56,0,0,1-1.85,3.86,8.27,8.27,0,0,1-5.08,1.4,10,10,0,0,1-4.12-.81,6.23,6.23,0,0,1-2.78-2.24,5.82,5.82,0,0,1-.93-3.27h4.53a2.9,2.9,0,0,0,.77,2.22,3.7,3.7,0,0,0,2.53.71,3,3,0,0,0,1.77-.48,1.62,1.62,0,0,0,.64-1.35Z"/></g></g></svg>