<svg id="Laag_1" data-name="Laag 1" xmlns="http://www.w3.org/2000/svg" viewBox="0 0 330.28 49.73"><path d="M.05,18.85c0-2.29,0-4.54,0-6.83H7a31.48,31.48,0,0,1,.21,3.39,9.4,9.4,0,0,1,8.2-4.11c4.58,0,6.94,2.06,8,4.56a10,10,0,0,1,9-4.56c5.43,0,9.75,3.22,9.75,11.07V38.45H34.94V22.56c0-2.54-.86-5.64-4.72-5.64-3.38,0-5.49,2.19-5.49,7V38.45H17.51v-16c0-2.78-1-5.55-4.73-5.55S7.27,19.82,7.27,24V38.45H.05Z"/><path d="M48.53,0h7.29V6.45H48.53Zm0,12h7.29V38.45H48.53Z"/><path d="M62.29,38.45V0h7.29V38.45Z"/><path d="M101.24,31.32c0,3.16.15,6.55.22,7.13h-6.9a21.82,21.82,0,0,1-.31-3.26c-1.41,2.43-4.43,4-9.6,4-7.31,0-10.17-4.44-10.17-8.58,0-6.88,6.1-8.79,13.81-8.79h5.82v-1c0-2.37-1-4.41-5.46-4.41-4.07,0-5,1.63-5.39,3.43H76c.25-3.34,2.57-8.5,12.59-8.5,10.88,0,12.68,5.18,12.68,9.59Zm-7.13-4.8c-.67,0-2.48,0-5.68,0-4.82,0-6.87,1.19-6.87,3.73,0,2,1.57,3.66,5,3.66,5.35,0,7.52-2.73,7.52-6.71Z"/><path d="M107.69,18.69c0-2.23,0-4.75,0-6.67h7.11c.11.8.19,2.59.23,3.88,1.19-2.05,3.71-4.6,9-4.6,6.41,0,10.32,4,10.32,10.92V38.45H127v-15c0-3.44-1.32-6.35-5.45-6.35-4.4,0-6.49,3.18-6.49,8.37v13h-7.33Z"/><path d="M160.88,35.46V49.73H153.6V18.55c0-2.16,0-4.36,0-6.53h7.14a30.88,30.88,0,0,1,.19,3.77c1.51-2.36,4.32-4.49,9.52-4.49,6.92,0,12.37,5.73,12.37,13.44,0,9-6.39,14.43-13.37,14.43C164.69,39.17,162.2,37.27,160.88,35.46Zm14.4-10.35c0-4.14-2.36-8-7.19-8-5.27,0-7.38,3.5-7.38,8.24s2.47,8,7.27,8S175.28,29.8,175.28,25.11Z"/><path d="M215.31,25.22c0,7.88-5.35,14-15.06,14-9.55,0-14.57-6.61-14.57-13.93s5.23-13.94,14.89-13.94C210.5,11.3,215.31,18.53,215.31,25.22Zm-22.21,0c0,4.39,2.57,8.33,7.4,8.33,5,0,7.31-3.8,7.31-8.23s-2.36-8.44-7.39-8.44S193.1,20.77,193.1,25.24Z"/><path d="M216.6,12h4.9V4h7.32v8h6.36v5.39h-6.36V29.6c0,2.49.56,3.63,3.23,3.63a11.06,11.06,0,0,0,2.36-.19v5.08a17.79,17.79,0,0,1-4.92.55c-6.18,0-8-2.7-8-7.87V17.41h-4.9Z"/><path d="M236.26,12h4.9V4h7.32v8h6.37v5.39h-6.37V29.6c0,2.49.57,3.63,3.23,3.63a11.15,11.15,0,0,0,2.37-.19v5.08a17.88,17.88,0,0,1-4.92.55c-6.18,0-8-2.7-8-7.87V17.41h-4.9Z"/><path d="M264,27c.23,3.79,2.9,6.67,7.3,6.67,3.46,0,5.2-1.19,6.3-3.11h7.29c-1.54,4.44-5.44,8.62-13.74,8.62-10.39,0-14.42-7.09-14.42-13.88,0-7.62,5.1-14,14.34-14,10.21,0,14.16,7.17,14.16,13.92,0,.59,0,1,0,1.77Zm13.8-4.61c-.19-2.37-1.46-5.85-6.74-5.85-4.72,0-6.65,2.7-7,5.85Z"/><path d="M289.73,18.69c0-2.23,0-4.75-.05-6.67h7.11c.1.8.19,2.59.22,3.88,1.19-2.05,3.72-4.6,9-4.6,6.41,0,10.31,4,10.31,10.92V38.45H309v-15c0-3.44-1.33-6.35-5.45-6.35-4.41,0-6.5,3.18-6.5,8.37v13h-7.32Z"/><path d="M322,38.45v-10h8.33v10Z"/></svg>