<svg id="Laag_1" data-name="Laag 1" xmlns="http://www.w3.org/2000/svg" viewBox="0 0 232.01 64.04"><defs><style>.cls-1{fill:#1d1d1b;}</style></defs><path id="Path_118" data-name="Path 118" class="cls-1" d="M7.76,44.64a6,6,0,0,1,4.6,2,7.48,7.48,0,0,1,0,10,6,6,0,0,1-4.6,2.05,5.19,5.19,0,0,1-4.31-2v1.57H0V39.68H3.45v6.9A5.18,5.18,0,0,1,7.76,44.64ZM4.49,54.41a3.56,3.56,0,0,0,2.64,1.05,3.6,3.6,0,0,0,2.65-1.05,4,4,0,0,0,0-5.41,3.57,3.57,0,0,0-2.65-1.06A3.53,3.53,0,0,0,4.49,49a4,4,0,0,0,0,5.41Z"/><path id="Path_119" data-name="Path 119" class="cls-1" d="M19.6,53.08q.69,2.51,3.75,2.5a3.49,3.49,0,0,0,3-1.32l2.77,1.6a6.65,6.65,0,0,1-5.81,2.85,7.16,7.16,0,0,1-5.3-2,7,7,0,0,1,5-12.07,6.29,6.29,0,0,1,4.84,2,7,7,0,0,1,1.9,5,7.4,7.4,0,0,1-.13,1.41Zm-.05-2.66h6.79a3.18,3.18,0,0,0-1.21-2,3.46,3.46,0,0,0-2.1-.67,3.62,3.62,0,0,0-2.29.7,3.38,3.38,0,0,0-1.19,2Z"/><path id="Path_120" data-name="Path 120" class="cls-1" d="M32.17,58.33V38.86h3.44V58.33Z"/><path id="Path_121" data-name="Path 121" class="cls-1" d="M48.88,45h3.44V58.33H48.88V56.76a5.24,5.24,0,0,1-4.34,2,6,6,0,0,1-4.57-2,7.51,7.51,0,0,1,0-10,6,6,0,0,1,4.57-2,5.22,5.22,0,0,1,4.34,2Zm-6.34,9.4a3.86,3.86,0,0,0,5.29,0,4,4,0,0,0,0-5.41,3.86,3.86,0,0,0-5.29,0A4.05,4.05,0,0,0,42.54,54.41Z"/><path id="Path_122" data-name="Path 122" class="cls-1" d="M58.5,48.8c0,.35.23.64.71.86a9.34,9.34,0,0,0,1.71.59,15.94,15.94,0,0,1,2,.64,3.93,3.93,0,0,1,1.72,1.29,3.58,3.58,0,0,1,.74,2.27,3.66,3.66,0,0,1-1.53,3.15,6.33,6.33,0,0,1-3.82,1.11q-4.11,0-5.6-3.17l3-1.68A2.47,2.47,0,0,0,60,55.59c1.23,0,1.84-.38,1.84-1.14,0-.36-.24-.64-.74-.87a10.3,10.3,0,0,0-1.72-.6,18.48,18.48,0,0,1-2-.66,4.14,4.14,0,0,1-1.71-1.27,3.29,3.29,0,0,1-.74-2.17,3.71,3.71,0,0,1,1.48-3.11A5.68,5.68,0,0,1,60,44.64a6,6,0,0,1,3,.74,5.3,5.3,0,0,1,2.11,2.09l-3,1.6A2.22,2.22,0,0,0,60,47.71a1.87,1.87,0,0,0-1.1.3A.89.89,0,0,0,58.5,48.8Z"/><path id="Path_123" data-name="Path 123" class="cls-1" d="M74.81,48.32h-3v5.54a1.3,1.3,0,0,0,.35,1,1.6,1.6,0,0,0,1,.36,15.14,15.14,0,0,0,1.65,0v3.11q-3.54.4-5-.66c-1-.71-1.47-2-1.48-3.81V48.33H66V45h2.32V42.32l3.43-1V45h3Z"/><path id="Path_124" data-name="Path 124" class="cls-1" d="M78.94,43.41a2.09,2.09,0,0,1-1.44-3.59A2,2,0,0,1,79,39.19a2.15,2.15,0,0,1,2.11,2.11,2.13,2.13,0,0,1-2.15,2.11Zm-1.7,14.92V45h3.43V58.33Z"/><path id="Path_125" data-name="Path 125" class="cls-1" d="M91.22,44.64a4.81,4.81,0,0,1,3.61,1.48,5.53,5.53,0,0,1,1.43,4.05v8.16H92.82V50.58a2.71,2.71,0,0,0-.74-2,2.67,2.67,0,0,0-1.92-.71,2.87,2.87,0,0,0-2.13.83,3.44,3.44,0,0,0-.8,2.48v7.19H83.8V45h3.44v1.48A4.43,4.43,0,0,1,91.22,44.64Z"/><path id="Path_126" data-name="Path 126" class="cls-1" d="M109.4,45h3.35V57.69a5.67,5.67,0,0,1-2,4.72A7.63,7.63,0,0,1,105.8,64a8.34,8.34,0,0,1-3.8-.84,5.72,5.72,0,0,1-2.52-2.42l3-1.68A3.63,3.63,0,0,0,105.93,61a3.71,3.71,0,0,0,2.56-.85,3.11,3.11,0,0,0,.93-2.43V56.25a5,5,0,0,1-4.26,2,6.22,6.22,0,0,1-4.73-2,7.06,7.06,0,0,1,0-9.66,6.34,6.34,0,0,1,4.72-2,5.07,5.07,0,0,1,4.27,2ZM103,54.08a4,4,0,0,0,5.35,0,3.51,3.51,0,0,0,1.06-2.63,3.47,3.47,0,0,0-1.06-2.59,4,4,0,0,0-5.35,0,3.74,3.74,0,0,0,0,5.22Z"/><path id="Path_127" data-name="Path 127" class="cls-1" d="M126,45h3.42V58.33H126V56.76a5.26,5.26,0,0,1-4.35,2,6,6,0,0,1-4.57-2,7.51,7.51,0,0,1,0-10,6.05,6.05,0,0,1,4.57-2A5.25,5.25,0,0,1,126,46.58Zm-6.35,9.4a3.86,3.86,0,0,0,5.29,0,4,4,0,0,0,0-5.41,3.83,3.83,0,0,0-5.29,0,4,4,0,0,0,0,5.41Z"/><path id="Path_128" data-name="Path 128" class="cls-1" d="M142.65,39.68h3.44V58.33h-3.44V56.76a5.19,5.19,0,0,1-4.32,2,6.12,6.12,0,0,1-4.6-2,7.54,7.54,0,0,1,0-10,6.11,6.11,0,0,1,4.58-2,5.17,5.17,0,0,1,4.31,1.94Zm-6.33,14.73A3.6,3.6,0,0,0,139,55.46a3.55,3.55,0,0,0,2.63-1.05,4.05,4.05,0,0,0,0-5.41A3.52,3.52,0,0,0,139,47.94,3.57,3.57,0,0,0,136.32,49a4,4,0,0,0,0,5.41Z"/><path id="Path_129" data-name="Path 129" class="cls-1" d="M158,45h3.79l-5.07,13.32H152.8L147.74,45h3.78l3.24,9.33Z"/><path id="Path_130" data-name="Path 130" class="cls-1" d="M165.14,43.41a2.14,2.14,0,0,1-2.11-2.1,2.07,2.07,0,0,1,.63-1.48,2,2,0,0,1,3,0,2.07,2.07,0,0,1,.63,1.48,2.15,2.15,0,0,1-2.13,2.1Zm-1.71,14.92V45h3.44V58.33Z"/><path id="Path_131" data-name="Path 131" class="cls-1" d="M173.1,48.8c0,.35.23.64.7.86a9.44,9.44,0,0,0,1.72.59,16.46,16.46,0,0,1,2,.64,3.9,3.9,0,0,1,1.71,1.29,3.55,3.55,0,0,1,.71,2.27,3.64,3.64,0,0,1-1.54,3.15,6.33,6.33,0,0,1-3.82,1.11c-2.73,0-4.6-1.06-5.59-3.17l3-1.68a2.47,2.47,0,0,0,2.61,1.73c1.22,0,1.84-.38,1.84-1.14,0-.36-.24-.64-.71-.87A10.19,10.19,0,0,0,174,53a17.81,17.81,0,0,1-2-.66,4.1,4.1,0,0,1-1.72-1.27,3.29,3.29,0,0,1-.74-2.17A3.73,3.73,0,0,1,171,45.77a5.71,5.71,0,0,1,3.61-1.13,6,6,0,0,1,3,.74,5.34,5.34,0,0,1,2.1,2.09l-3,1.6a2.23,2.23,0,0,0-2.14-1.36,1.87,1.87,0,0,0-1.1.3A.88.88,0,0,0,173.1,48.8Z"/><path id="Path_132" data-name="Path 132" class="cls-1" d="M184.88,53.08q.7,2.51,3.76,2.5a3.5,3.5,0,0,0,3-1.32l2.78,1.6a6.66,6.66,0,0,1-5.81,2.85,7.17,7.17,0,0,1-5.31-2,7,7,0,0,1,5-12.07,6.27,6.27,0,0,1,4.83,2,7,7,0,0,1,1.91,5,7.4,7.4,0,0,1-.13,1.41Zm0-2.66h6.77a3.15,3.15,0,0,0-1.22-2,3.38,3.38,0,0,0-2.08-.67,3.64,3.64,0,0,0-2.3.7,3.43,3.43,0,0,0-1.17,2Z"/><path id="Path_133" data-name="Path 133" class="cls-1" d="M206.25,45h3.44V58.33h-3.44V56.85a4.44,4.44,0,0,1-4,1.87,4.85,4.85,0,0,1-3.61-1.49,5.52,5.52,0,0,1-1.42-4V45h3.43v7.75a2.78,2.78,0,0,0,.74,2,2.64,2.64,0,0,0,1.92.74,2.79,2.79,0,0,0,2.13-.83,3.4,3.4,0,0,0,.8-2.48Z"/><path id="Path_134" data-name="Path 134" class="cls-1" d="M216.27,47.3a3.58,3.58,0,0,1,1.59-1.92,4.81,4.81,0,0,1,2.46-.64v3.84a4.05,4.05,0,0,0-2.81.64A3,3,0,0,0,216.27,52v6.37h-3.43V45h3.43Z"/><path id="Path_135" data-name="Path 135" class="cls-1" d="M225.06,48.8c0,.35.24.64.74.86a9.81,9.81,0,0,0,1.73.59,16.31,16.31,0,0,1,2,.64,3.93,3.93,0,0,1,1.72,1.29,3.58,3.58,0,0,1,.74,2.27,3.64,3.64,0,0,1-1.54,3.15,6.33,6.33,0,0,1-3.82,1.11q-4.1,0-5.6-3.17l3-1.68a2.47,2.47,0,0,0,2.61,1.73c1.23,0,1.84-.38,1.84-1.14,0-.36-.25-.64-.74-.87A10.3,10.3,0,0,0,226,53a18.32,18.32,0,0,1-2-.66,4.17,4.17,0,0,1-1.72-1.27,3.29,3.29,0,0,1-.74-2.17A3.71,3.71,0,0,1,223,45.77a5.65,5.65,0,0,1,3.61-1.13,6,6,0,0,1,3,.74,5.3,5.3,0,0,1,2.11,2.09l-3,1.6a2.24,2.24,0,0,0-2.13-1.36,1.9,1.9,0,0,0-1.11.3A.9.9,0,0,0,225.06,48.8Z"/><path id="Path_136" data-name="Path 136" class="cls-1" d="M11.86.38a10.49,10.49,0,1,1,.55,21H4.34V33H0V.38Zm0,16.92a5.94,5.94,0,0,0,4.44-1.84,6.88,6.88,0,0,0,0-9.21,6,6,0,0,0-4.44-1.82H4.34V17.3Z"/><path id="Path_137" data-name="Path 137" class="cls-1" d="M29.16,5.45a2.68,2.68,0,0,1-2-.79,2.61,2.61,0,0,1-.79-1.92A2.65,2.65,0,0,1,27.2.81a2.59,2.59,0,0,1,2-.81,2.54,2.54,0,0,1,1.91.81,2.72,2.72,0,0,1-1.91,4.64ZM27.11,33V9.69h4.05V33Z"/><path id="Path_138" data-name="Path 138" class="cls-1" d="M50.05,13.61h-6.2V26.28a3.49,3.49,0,0,0,.67,2.44,2.8,2.8,0,0,0,2.08.74c.93,0,2.08,0,3.45-.06V33c-3.55.47-6.14.18-7.79-.87s-2.47-3-2.47-5.92V13.61H35.17V9.69h4.62V4.38l4.06-1.22V9.69h6.2Z"/><path id="Path_139" data-name="Path 139" class="cls-1" d="M56.53,23.22a7.65,7.65,0,0,0,2.87,4.84A8.84,8.84,0,0,0,65,29.79q4.62,0,6.72-3.41l3.45,2q-3.42,5.28-10.26,5.28a12.24,12.24,0,0,1-9-3.48,11.94,11.94,0,0,1-3.47-8.79,12,12,0,0,1,3.41-8.76,11.76,11.76,0,0,1,8.81-3.5A10.73,10.73,0,0,1,73,12.7a12.57,12.57,0,0,1,3.24,8.7,11.07,11.07,0,0,1-.14,1.82Zm8.06-10.31a7.72,7.72,0,0,0-8.06,6.76H72.11a7.78,7.78,0,0,0-2.62-5,7.46,7.46,0,0,0-4.9-1.72Z"/><path id="Path_140" data-name="Path 140" class="cls-1" d="M84.93,13.61c1.34-2.89,3.76-4.33,7.27-4.34v4.25a7.32,7.32,0,0,0-5.13,1.58q-2.14,1.72-2.14,5.55V33H80.87V9.69h4.06Z"/><path id="Path_141" data-name="Path 141" class="cls-1" d="M98.78,15.92A2.38,2.38,0,0,0,100.16,18a14.86,14.86,0,0,0,3.27,1.36l3.82,1.12a6.68,6.68,0,0,1,3.25,2.11,6,6,0,0,1,1.34,4,6.18,6.18,0,0,1-2.45,5.09,10,10,0,0,1-6.27,1.91,10.9,10.9,0,0,1-5.83-1.48,8.44,8.44,0,0,1-3.46-4l3.51-2a4.93,4.93,0,0,0,2.09,2.66,6.77,6.77,0,0,0,3.7,1,6.46,6.46,0,0,0,3.31-.74,2.61,2.61,0,0,0,1.31-2.4,2.46,2.46,0,0,0-1.36-2.17,14.12,14.12,0,0,0-3.25-1.38L99.32,22A7.06,7.06,0,0,1,96,19.89a5.5,5.5,0,0,1-1.35-3.82,6.21,6.21,0,0,1,2.35-5,8.92,8.92,0,0,1,5.93-2,10,10,0,0,1,5,1.24,8.28,8.28,0,0,1,3.34,3.57l-3.41,1.92q-1.24-3-5-3a5.18,5.18,0,0,0-3,.8,2.57,2.57,0,0,0-1.17,2.23Z"/><rect id="Rectangle_1325" data-name="Rectangle 1325" class="cls-1" x="115.17" y="29.01" width="116.77" height="3.74"/></svg>