<svg id="Laag_1" data-name="Laag 1" xmlns="http://www.w3.org/2000/svg" viewBox="0 0 200 25.47"><defs><style>.cls-1{fill:#1d1d1b;}</style></defs><path class="cls-1" d="M0,.46H8.32c5,0,8,2.94,8,7.26a7.27,7.27,0,0,1-5.13,7.09L17,25h-3.3L8.21,15.09H2.84V25H0Zm8.32,12.1c2.87,0,5-1.61,5-4.84C13.37,5.12,11.61,3,8.14,3H2.84v9.58Z"/><path class="cls-1" d="M30.83.46h14V3.05H33.67v8.18h9.61v2.56H33.67v8.67H45.21V25H30.83Z"/><path class="cls-1" d="M58.91,16.21V.46h2.84V16.18c0,4.07,2.18,6.66,6.32,6.66s6.35-2.59,6.35-6.7V.46h2.81V16.18c0,5.54-3.33,9.29-9.16,9.29S58.91,21.79,58.91,16.21Z"/><path class="cls-1" d="M107.88.46H99.56c-5,0-8,2.94-8,7.26a7.27,7.27,0,0,0,5.12,7.09L90.93,25h3.3l5.44-9.93H105V25h2.84Zm-8.32,12.1c-2.88,0-5-1.61-5-4.84,0-2.6,1.75-4.74,5.23-4.74H105v9.58Z"/><path class="cls-1" d="M123.51.46h2.84V25h-2.84Z"/><path class="cls-1" d="M142.15.46h2.92l12.84,19.61h.21V.46h2.81V25h-3L145.21,5.41H145V25h-2.85Z"/><path class="cls-1" d="M175,12.74A12.37,12.37,0,0,1,187.61,0a11.88,11.88,0,0,1,11.55,8H196c-1.3-3.2-4.25-5.3-8.39-5.3-5.79,0-9.68,4.31-9.68,10.07s4,10.07,9.75,10.07c5,0,8.95-3.3,9.13-8.21h-10V12.11H200c0,8.87-5.72,13.36-12.35,13.36A12.35,12.35,0,0,1,175,12.74Z"/></svg>