<svg id="Laag_1" data-name="Laag 1" xmlns="http://www.w3.org/2000/svg" viewBox="0 0 200 45.72"><defs><style>.cls-1{fill:#1d1d1b;}</style></defs><path class="cls-1" d="M67,23.61a1.53,1.53,0,0,0,.85,1.94,5.35,5.35,0,0,0,1.57.46c1.72.22,3.45.39,5.18.59a17.54,17.54,0,0,1,4.75,1,6.22,6.22,0,0,1,3.68,3.56A6.69,6.69,0,0,1,80.79,39a10.6,10.6,0,0,1-4,1.66,19.32,19.32,0,0,1-12.35-1.4c-.38-.17-.76-.34-1.13-.53s-1-.38-1.4.11l-.55-.29L63.9,33c.36,0,.54.17.56.54a1.67,1.67,0,0,0,.74,1.29,11.08,11.08,0,0,0,1.74,1.06,14.67,14.67,0,0,0,6.56,1.3,8.1,8.1,0,0,0,3-.67A3.46,3.46,0,0,0,78,35.31a3,3,0,0,0,.43-.79,1.62,1.62,0,0,0-1-2.22,7.08,7.08,0,0,0-1.64-.43c-1.36-.19-2.74-.32-4.11-.49s-2.67-.32-4-.55a8.6,8.6,0,0,1-1.88-.61,6,6,0,0,1-3.59-6.33,6.71,6.71,0,0,1,4.37-5.68,11.39,11.39,0,0,1,3.85-.9,18.5,18.5,0,0,1,8,1.05c1,.37,1.94.74,2.91,1.13A1.31,1.31,0,0,0,83,19.33l.54.28L80.81,25c-.24-.13-.51-.15-.51-.44a1.46,1.46,0,0,0-.78-1.18,10.13,10.13,0,0,0-2.79-1.49,12.66,12.66,0,0,0-7.21-.41,3.5,3.5,0,0,0-2,1.16A2.57,2.57,0,0,0,67,23.61Z"/><path class="cls-1" d="M88.84,17.49V6a.7.7,0,0,0-.4-.74c-.17-.08-.16-.11-.18-.39a40,40,0,0,1,5.37,0,1.17,1.17,0,0,1-.19.37c-.35.36-.38.47-.17.93l0,.1,3.49,6.62c0,.09.1.16.19.31.12-.2.19-.31.25-.43Q99,9.58,100.74,6.36a2.34,2.34,0,0,0,.23-.51.41.41,0,0,0-.21-.57.29.29,0,0,1-.19-.43h5.18c.12.23,0,.36-.17.45a.63.63,0,0,0-.4.68c0,.15,0,.3,0,.45,0,3.56,0,7.11,0,10.67,0,.5-.06,1,.55,1.23.06,0,.06.18.1.33H101.5c-.13-.22,0-.34.15-.41a.71.71,0,0,0,.44-.72v-8l-.07,0h0a1,1,0,0,0-.13.18q-2.5,4.43-5,8.85l0,0-.12.06L91.8,9.49l-.12,0v7.79c0,.42,0,.79.5,1,.08,0,.12.19.19.3a23.43,23.43,0,0,1-4.11.05.24.24,0,0,1,.14-.37A.71.71,0,0,0,88.84,17.49Z"/><path class="cls-1" d="M108.68,40.12a1.73,1.73,0,0,1-1.11-.9c-.19-.31-.38-.61-.54-.93q-3.54-6.7-7.07-13.4a5.48,5.48,0,0,1-.36-.83,1.18,1.18,0,0,1,.55-1.64.44.44,0,0,0,.16-.64H93.08c-.15.38,0,.52.25.66a1.06,1.06,0,0,1,.55,1.4,5.31,5.31,0,0,1-.39,1L88.48,35c-.64,1.29-1.27,2.58-1.92,3.87a2,2,0,0,1-1.35,1.27c-.27.05-.26.27-.17.52h6.88c.16-.39,0-.49-.33-.6A.93.93,0,0,1,91,38.81a4,4,0,0,1,.25-.69c.25-.53.53-1,.74-1.6a.77.77,0,0,1,.86-.53c2.5,0,5,0,7.5,0a1.2,1.2,0,0,1,.33,0,.54.54,0,0,1,.32.19c.42.78.87,1.55,1.22,2.37s.13,1.22-.67,1.55c-.31.13-.33.31-.2.56h7.62C109.07,40.37,109,40.19,108.68,40.12Zm-15.1-6.86c.93-2,1.87-3.88,2.86-5.92,1,2,2,3.95,3,5.92Z"/><path class="cls-1" d="M110.8,18.93a1.68,1.68,0,0,1-1.74-1.68,1.71,1.71,0,0,1,3.41,0A1.68,1.68,0,0,1,110.8,18.93Z"/><path class="cls-1" d="M125.41,15.22a1,1,0,0,0-.61-1.62,14.82,14.82,0,0,0-2-.36c-1.06-.14-2.14-.24-3.21-.37a5.27,5.27,0,0,1-1.93-.62,3.38,3.38,0,0,1-1.81-2.66,4,4,0,0,1,2.34-4.31,7.67,7.67,0,0,1,3-.7,11.64,11.64,0,0,1,5.14,1l.89.36c.32.12.64.26,1,0,.08-.06.23,0,.46,0-.61,1.18-1.15,2.25-1.73,3.4-.15-.17-.28-.25-.3-.35a1,1,0,0,0-.51-.71,7.2,7.2,0,0,0-6-1.08,2,2,0,0,0-1.14.7,1,1,0,0,0,.48,1.75,14.43,14.43,0,0,0,2.07.35,25.11,25.11,0,0,1,3.86.56,6.48,6.48,0,0,1,1,.35,3.92,3.92,0,0,1,.58,6.77A6.56,6.56,0,0,1,124,18.78a11.69,11.69,0,0,1-6.87-.92l-.72-.33a.72.72,0,0,0-.7,0c-.1.06-.26,0-.51,0L116.8,14c.14.13.31.2.32.3a1.75,1.75,0,0,0,1.14,1.31,8.56,8.56,0,0,0,4.27.94,4.75,4.75,0,0,0,1.87-.4A2.14,2.14,0,0,0,125.41,15.22Z"/><path class="cls-1" d="M131.39,21.82c.11.26.11.47-.21.57-.63.2-.79.66-.79,1.28,0,3.2,0,6.39,0,9.59a14.06,14.06,0,0,1-.3,3A5.23,5.23,0,0,1,127,40.06a12.18,12.18,0,0,1-3.84,1,21.45,21.45,0,0,1-5.43-.1,12.08,12.08,0,0,1-3.27-.92,4.86,4.86,0,0,1-2.94-3.58,14.31,14.31,0,0,1-.31-2.75c0-3.18,0-6.36,0-9.54,0-.19,0-.38,0-.57a1.06,1.06,0,0,0-.74-1.14c-.28-.11-.4-.27-.25-.6h6.61c.1.27.09.46-.2.55a1.21,1.21,0,0,0-.85,1.36c0,3.05,0,6.1,0,9.14a12,12,0,0,0,.17,1.69,3,3,0,0,0,1.72,2.26,5.94,5.94,0,0,0,2.22.62,9.11,9.11,0,0,0,3.6-.28,6.71,6.71,0,0,0,.84-.34,3,3,0,0,0,1.72-2.44,17.52,17.52,0,0,0,.13-1.92c0-2.87,0-5.75,0-8.63,0-.68-.12-1.23-.86-1.47-.26-.08-.24-.3-.14-.54Z"/><path class="cls-1" d="M133.18,18.93a1.69,1.69,0,1,1,0-3.37,1.69,1.69,0,0,1,0,3.37Z"/><path class="cls-1" d="M153.12,18.32a2.36,2.36,0,0,1-1.36-1.14L149,13.24c0-.07-.08-.16-.14-.26.41-.12.8-.21,1.17-.34a3.44,3.44,0,0,0,2.4-2.7,5.65,5.65,0,0,0,.07-1.3A3.6,3.6,0,0,0,149.39,5a11.29,11.29,0,0,0-2.25-.22c-2.84,0-5.68,0-8.52,0-.16,0-.32,0-.46,0-.09.25,0,.37.17.44a.67.67,0,0,1,.41.68c0,.19,0,.38,0,.57V16.76c0,.2,0,.41,0,.62,0,.38-.05.72-.47.89-.09,0-.14.2-.25.39h4.49c-.08-.17-.11-.33-.19-.37-.46-.18-.51-.55-.5-1V13.69c0-.19,0-.37,0-.56a1.86,1.86,0,0,1,.26,0h3a.62.62,0,0,1,.58.36l2.56,3.75q.16.24.3.48c.18.34.17.39-.16.59-.18.1-.26.19-.15.39a32.52,32.52,0,0,0,5-.07C153.22,18.48,153.18,18.34,153.12,18.32Zm-5-7.71a2.57,2.57,0,0,1-.61.09h-5.28c-.11,0-.21,0-.36,0V7.23a4,4,0,0,1,.45-.06l5.05,0a3.63,3.63,0,0,1,.57,0,1.6,1.6,0,0,1,1.5,1.68A1.54,1.54,0,0,1,148.11,10.61Z"/><path class="cls-1" d="M155.59,40.12a3,3,0,0,1-1.51-1.06c-.29-.34-.58-.7-.85-1.07-1.16-1.6-2.32-3.22-3.47-4.84a3.33,3.33,0,0,1-.24-.39l.54-.14a8.93,8.93,0,0,0,2.57-1,4.2,4.2,0,0,0,2-2.86,9,9,0,0,0,.13-1.8A4.69,4.69,0,0,0,151,22.16a10.71,10.71,0,0,0-2.92-.35l-13.35,0a2.2,2.2,0,0,0-.37.05c-.13.32,0,.48.28.58a1.06,1.06,0,0,1,.73,1.14c0,5.13,0,10.26,0,15.39a1.06,1.06,0,0,1-.74,1.14.38.38,0,0,0-.27.58,62.44,62.44,0,0,0,6.65-.05c0-.38,0-.4-.32-.54A1.15,1.15,0,0,1,140,39c0-.09,0-.19,0-.28,0-1.74,0-3.48,0-5.23,0-.14,0-.29,0-.49h.58c1.12,0,2.23,0,3.35,0a.9.9,0,0,1,.84.43c1.13,1.66,2.29,3.29,3.44,4.94.11.17.23.34.33.52.37.67.3.93-.38,1.25-.29.14-.35.3-.22.57h7.87C155.94,40.37,155.88,40.19,155.59,40.12Zm-7.81-10.69c-2.5,0-5,0-7.49,0a.91.91,0,0,1-.28,0V25.29l.47,0c2.17,0,4.35,0,6.52,0a8.28,8.28,0,0,1,1.79.23,1.54,1.54,0,0,1,1.27,1.59,3.85,3.85,0,0,1,0,.68A1.56,1.56,0,0,1,149,29.17,4,4,0,0,1,147.78,29.43Z"/><path class="cls-1" d="M157.38,18.94a1.69,1.69,0,1,1,1.69-1.67A1.65,1.65,0,0,1,157.38,18.94Z"/><path class="cls-1" d="M161.1,4.84h4.81c.1.2.07.32-.15.44-.47.25-.52.37-.36.86.1.28.23.56.35.83,1.06,2.34,2.12,4.69,3.17,7,.07.15.16.29.27.5.11-.24.2-.4.27-.57q1.65-3.61,3.28-7.23a4.07,4.07,0,0,0,.22-.58c.14-.44.07-.59-.33-.84-.16-.1-.16-.1-.2-.38a34.26,34.26,0,0,1,4.67,0c.1.16.09.33-.09.37-.54.11-.69.56-.88,1Q175,8.53,174,10.87l-2.65,5.71c-.12.26-.24.52-.34.78-.19.51-.15.62.34.91.16.1.22.19.13.39h-4.71c-.13-.25,0-.32.18-.41.42-.23.47-.38.31-.83-.08-.21-.17-.42-.26-.63L162.21,6.55c-.1-.22-.21-.44-.32-.66a1,1,0,0,0-.67-.64C161,5.2,161,5.05,161.1,4.84Z"/><path class="cls-1" d="M178.47,21.83c.14.25.11.45-.2.55-.65.21-.81.7-.81,1.33,0,3.4,0,6.81,0,10.21a10.56,10.56,0,0,1-.35,2.69,5,5,0,0,1-2.49,3.18,9.94,9.94,0,0,1-3.43,1.11,20.57,20.57,0,0,1-7-.1,13.91,13.91,0,0,1-2.18-.63,5.14,5.14,0,0,1-3.54-4.51,16.33,16.33,0,0,1-.15-2c0-3.18,0-6.36,0-9.54,0-.19,0-.38,0-.57a1.12,1.12,0,0,0-.78-1.18c-.27-.08-.37-.25-.25-.58h6.61c.13.26.11.46-.2.56a1.12,1.12,0,0,0-.8,1.27c0,3.1,0,6.21,0,9.31a11,11,0,0,0,.13,1.52,3,3,0,0,0,1.66,2.3,6.25,6.25,0,0,0,2.27.66,9.71,9.71,0,0,0,3.44-.22l.22-.07a3.31,3.31,0,0,0,2.6-3.25c0-.58,0-1.17.06-1.75V24c0-.18,0-.35,0-.52a1,1,0,0,0-.72-1c-.27-.09-.43-.23-.31-.54A55.23,55.23,0,0,1,178.47,21.83Z"/><path class="cls-1" d="M180.73,17.25A1.69,1.69,0,0,1,179,18.93a1.67,1.67,0,0,1-1.65-1.71,1.71,1.71,0,0,1,3.41,0Z"/><path class="cls-1" d="M198,39.12a9.71,9.71,0,0,1-4.48,1.8,19.41,19.41,0,0,1-10.66-1.41l-.47-.2a.68.68,0,0,0-.83.11c-.22.21-.4.17-.61-.07.62-1.49,1.26-3,1.9-4.53.3,0,.5.08.52.41a.93.93,0,0,0,.53.76,11.53,11.53,0,0,0,1.62.79,14.85,14.85,0,0,0,6.37.8,11.76,11.76,0,0,0,2.31-.55,2.44,2.44,0,0,0,1-.59,1.39,1.39,0,0,0-.41-2.34,5.84,5.84,0,0,0-1.59-.42c-1.25-.15-2.52-.25-3.78-.36a23.17,23.17,0,0,1-4.15-.58,4.92,4.92,0,0,1-3.84-4,5.32,5.32,0,0,1,2.47-5.77,10.38,10.38,0,0,1,4.26-1.45A15.8,15.8,0,0,1,196.89,23l1.2.52a.76.76,0,0,0,.85-.08c.24-.2.44-.17.68.11-.75,1.46-1.5,2.89-2.23,4.31-.34,0-.48-.16-.51-.42a1.2,1.2,0,0,0-.57-.81,7.23,7.23,0,0,0-2.17-1.08,12.32,12.32,0,0,0-6-.53,4.68,4.68,0,0,0-1.91.69,2.83,2.83,0,0,0-.79.79,1.17,1.17,0,0,0,.63,1.8,9.59,9.59,0,0,0,2,.43c1.69.19,3.39.3,5.08.47a12,12,0,0,1,3.62.9A5.28,5.28,0,0,1,198,39.12Z"/><polygon class="cls-1" points="20.1 9.36 18.53 9.36 19.65 7.62 21.21 7.62 20.1 9.36"/><path class="cls-1" d="M54.18,17.77H33L32.91,0,25.54,10.17l-7.22-.05-5.1,7.71-11.57,0,12.13,8.79L0,45.72,24.4,33.5,42,45.4,36,27.73ZM19.33,11.23h5.53l-4.64,6.6h-.54l3.58-5.27L16.39,16Zm0,4.66-1.19,1.94s-2.09,0-2.14,0Zm14.49,5.28H20.32l-8.82,12V32.15l7.84-11H7.53l-.68-.55H19.71l.94-1.28H5.59l-1-.7H21.22l7.35-10.1h.7L22.11,18.61H51l-1.15.68-28.21.05-1,1.28H34.53Z"/></svg>