<svg id="Laag_1" data-name="Laag 1" xmlns="http://www.w3.org/2000/svg" viewBox="0 0 238.46 34.38"><defs><style>.cls-1{fill:#1d1d1b;}</style></defs><g id="vormklever_wordmark-072c-rgb_regular" data-name="vormklever wordmark-072c-rgb regular"><path id="Path_107" data-name="Path 107" class="cls-1" d="M8.12,33.71,0,9.84H4.76L8.9,22.94A26,26,0,0,1,10,30.43H12a26,26,0,0,1,1-7.49L17,9.84h4.63L13.77,33.71Z"/><path id="Path_108" data-name="Path 108" class="cls-1" d="M23,21.82C23,14.55,27.8,9.16,34.4,9.16s11.31,5.39,11.31,12.66S40.8,34.38,34.4,34.38,23,29,23,21.82Zm18,.05c0-5.89-2.67-8.81-6.59-8.81S27.75,16,27.75,21.87s2.68,8.61,6.65,8.61S41,27.69,41,21.87Z"/><path id="Path_109" data-name="Path 109" class="cls-1" d="M50.53,33.71V9.84h4.39c0,2.14-1.45,5.06-2.56,6.84H55c1.07-4,3-7.17,7.9-7.17a8.2,8.2,0,0,1,2.26.24v4.62a19.76,19.76,0,0,0-2.55-.19c-5.3,0-7.49,3.18-7.49,8.91V33.71Z"/><path id="Path_110" data-name="Path 110" class="cls-1" d="M68.61,33.71V9.85H72.8A10.68,10.68,0,0,1,71,14.71h2.36c.81-2.5,2.55-5.54,6.69-5.54a6.87,6.87,0,0,1,6.79,5.54h1.88a7.38,7.38,0,0,1,7-5.54c4.81,0,8.18,3.28,8.18,8.86V33.71H99.33V19.12c0-4.38-2-6-5-6-5.72,0-5.88,6-5.88,9.29V33.71H84V19.12c0-4.38-2-6-5.06-6-5.58,0-5.82,6-5.82,9.29V33.71Z"/><path id="Path_111" data-name="Path 111" class="cls-1" d="M127.75,33.71l-8.8-11-4.34,4.05v6.95h-4.53V0h4.51V13.8c0,4-.53,5.54-2.55,7.37l1.49,1.49L126.79,9.84h5.92l-10.59,9.93,11.46,14Z"/><path id="Path_112" data-name="Path 112" class="cls-1" d="M136.77,33.71V0h4.53V33.71Z"/><path id="Path_113" data-name="Path 113" class="cls-1" d="M146.21,21.87c0-7.8,4.63-12.72,10.84-12.72,7.12,0,11.36,6,10.5,13.78H150.74c.19,5.73,3.37,7.65,6.65,7.65A6.62,6.62,0,0,0,163.6,26l4.14,1.49c-1.73,4.57-5.54,6.88-10.5,6.88C150.59,34.38,146.21,29.9,146.21,21.87ZM163,19.31c-.05-4.28-2.74-6.54-5.92-6.54s-5.82,2.4-6.21,6.54Z"/><path id="Path_114" data-name="Path 114" class="cls-1" d="M177.31,33.71,169.17,9.84h4.76l4.15,13.1a26.38,26.38,0,0,1,1.06,7.49h2.08a25.35,25.35,0,0,1,1-7.49l3.93-13.1h4.63l-7.85,23.87Z"/><path id="Path_115" data-name="Path 115" class="cls-1" d="M192.25,21.87c0-7.8,4.62-12.72,10.83-12.72,7.13,0,11.37,6,10.5,13.78H196.77c.2,5.73,3.38,7.65,6.65,7.65A6.61,6.61,0,0,0,209.63,26l4.14,1.49c-1.73,4.57-5.53,6.88-10.49,6.88C196.63,34.38,192.25,29.9,192.25,21.87ZM209,19.31c0-4.28-2.75-6.54-5.92-6.54s-5.83,2.4-6.21,6.54Z"/><path id="Path_116" data-name="Path 116" class="cls-1" d="M218.65,33.71V9.84H223c0,2.14-1.45,5.06-2.55,6.84h2.6c1.07-4,3-7.17,7.89-7.17a8.23,8.23,0,0,1,2.27.24v4.62a19.91,19.91,0,0,0-2.56-.19c-5.29,0-7.49,3.18-7.49,8.91V33.71Z"/><path id="Path_117" data-name="Path 117" class="cls-1" d="M232.3,33.71V27.45h6.16v6.26Z"/></g></svg>