<?xml version="1.0" encoding="utf-8"?>
<!-- Generator: Adobe Illustrator 25.4.1, SVG Export Plug-In . SVG Version: 6.00 Build 0)  -->
<svg version="1.1" id="Laag_1" xmlns="http://www.w3.org/2000/svg" xmlns:xlink="http://www.w3.org/1999/xlink" x="0px" y="0px"
	 viewBox="0 0 925.69 197.06" style="enable-background:new 0 0 925.69 197.06;" xml:space="preserve">
<style type="text/css">
	.st0{fill:#FFFFFF;}
	.st1{fill:#FFDE00;}
</style>
<g>
	<path class="st0" d="M109.89,56.53c-2.11-13.47-13.47-31.96-39.62-31.96c-21.13,0-36.19,13.74-36.19,31.17
		c0,13.47,8.19,23.77,24.04,27.21l28,6.08c31.17,6.87,48.61,26.42,48.61,52.57c0,29.06-24.83,55.47-64.72,55.47
		c-45.17,0-66.57-29.06-70-55.74l24.83-7.93c1.85,20.87,16.64,40.15,44.91,40.15c25.89,0,38.57-13.47,38.57-29.85
		c0-13.47-9.25-25.09-28-29.06l-26.68-5.81c-26.68-5.81-45.7-23.25-45.7-51.25c0-29.32,27.21-55.74,61.81-55.74
		c42.27,0,59.17,26.15,63.4,46.49L109.89,56.53z"/>
	<path class="st0" d="M193.5,66.04h27.47v22.45H193.5v66.04c0,11.62,4.75,17.43,17.7,17.43c3.17,0,7.66-0.53,9.77-1.06v21.13
		c-2.11,0.79-8.45,2.38-16.91,2.38c-21.66,0-35.4-13.21-35.4-36.19V88.49h-24.3V66.04h6.87c13.74,0,19.55-8.45,19.55-19.55v-20.6
		h22.72V66.04z"/>
	<path class="st0" d="M292.21,197.06c-29.59,0-47.55-22.19-47.55-50.98V66.04h24.83v76.34c0,17.43,7.92,32.76,28.79,32.76
		c20.08,0,30.11-13.21,30.11-32.49V66.04h24.83v103.55c0,10.04,0.79,19.02,1.32,23.51h-23.77c-0.53-2.91-1.06-10.04-1.06-15.32
		C322.85,190.99,307,197.06,292.21,197.06z"/>
	<path class="st0" d="M479.71,173.82c-6.08,12.15-19.55,22.72-39.36,22.72c-37.25,0-60.23-29.59-60.23-67.36
		c0-35.93,24.3-66.57,60.23-66.57c22.45,0,34.6,11.09,38.83,21.4V1.85h24.57v167.74c0,12.15,1.06,21.4,1.32,23.51h-24.04
		c-0.53-2.91-1.32-9.51-1.32-17.17V173.82z M442.73,174.61c22.72,0,36.72-19.81,36.72-45.96c0-26.15-13.74-44.11-36.45-44.11
		c-22.72,0-37.51,18.49-37.51,44.64S418.95,174.61,442.73,174.61z"/>
	<path class="st0" d="M551.56,0c10.04,0,17.96,7.92,17.96,17.96c0,9.77-7.93,17.7-17.96,17.7c-9.77,0-17.7-7.92-17.7-17.7
		C533.86,7.92,541.79,0,551.56,0z M539.41,193.1V66.04h24.57V193.1H539.41z"/>
	<path class="st0" d="M711.67,156.91c-7.13,22.45-27.47,40.15-57.06,40.15c-34.08,0-63.93-24.83-63.93-67.89
		c0-39.89,28.79-67.1,60.76-67.1c39.1,0,61.02,26.94,61.02,66.57c0,3.17-0.26,6.34-0.53,7.93h-95.63
		c0.53,22.72,16.91,38.57,38.3,38.57c20.6,0,30.91-11.36,35.66-25.62L711.67,156.91z M686.57,116.49
		C686.05,98.27,674.16,84,651.71,84c-20.87,0-33.55,16.11-34.61,32.49H686.57z"/>
	<path class="st0" d="M831.75,173.82c-6.08,12.15-19.55,22.72-39.36,22.72c-37.25,0-60.23-29.59-60.23-67.36
		c0-35.93,24.3-66.57,60.23-66.57c22.45,0,34.61,11.09,38.83,21.4V1.85h24.57v167.74c0,12.15,1.06,21.4,1.32,23.51h-24.04
		c-0.53-2.91-1.32-9.51-1.32-17.17V173.82z M794.77,174.61c22.72,0,36.72-19.81,36.72-45.96c0-26.15-13.74-44.11-36.45-44.11
		s-37.51,18.49-37.51,44.64S771,174.61,794.77,174.61z"/>
	<path class="st1" d="M907.2,157.7c10.3,0,18.49,8.19,18.49,18.49c0,10.3-8.19,18.23-18.49,18.23c-10.3,0-18.23-7.93-18.23-18.23
		C888.97,165.89,896.9,157.7,907.2,157.7z"/>
</g>
</svg>
